<svg width="30" height="30" viewBox="0 0 30 30" fill="none" xmlns="http://www.w3.org/2000/svg">
    <rect width="30" height="30" fill="black" fill-opacity="0"/>
    <path d="M30 3.21429V26.7857C30 28.5609 28.5609 30 26.7857 30H3.21429C1.43906 30 0 28.5609 0 26.7857V3.21429C0 1.43906 1.43906 0 3.21429 0H26.7857C28.5609 0 30 1.43906 30 3.21429ZM20.3571 17.6786C19.382 17.6786 18.494 18.051 17.827 18.661L13.2763 15.9305C13.4317 15.3199 13.4317 14.68 13.2763 14.0694L17.827 11.3389C18.494 11.949 19.382 12.3214 20.3571 12.3214C22.4282 12.3214 24.1071 10.6425 24.1071 8.57143C24.1071 6.50036 22.4282 4.82143 20.3571 4.82143C18.2861 4.82143 16.6071 6.50036 16.6071 8.57143C16.6071 8.89266 16.6477 9.20444 16.7237 9.50203L12.1729 12.2325C11.506 11.6224 10.618 11.25 9.64286 11.25C7.57179 11.25 5.89286 12.9289 5.89286 15C5.89286 17.0711 7.57179 18.75 9.64286 18.75C10.618 18.75 11.506 18.3776 12.173 17.7676L16.7237 20.498C16.6462 20.8022 16.607 21.1148 16.6072 21.4286C16.6072 23.4997 18.2861 25.1786 20.3572 25.1786C22.4283 25.1786 24.1072 23.4997 24.1072 21.4286C24.1071 19.3575 22.4282 17.6786 20.3571 17.6786Z" fill="black"/>
</svg>
