<svg width="29" height="27" viewBox="0 0 29 27" fill="none" xmlns="http://www.w3.org/2000/svg">
    <rect width="29" height="27" fill="black" fill-opacity="0" transform="translate(29) scale(-1 1)"/>
    <rect width="29" height="27" fill="black" fill-opacity="0" transform="translate(29) scale(-1 1)"/>
    <path d="M0.60482 4.61469C1.12644 3.98433 1.91786 3.63348 2.73926 3.63348H20.5642C21.0738 3.63348 21.5595 3.7762 21.9791 4.03191L22.8905 0.874175C23.0404 0.356806 23.514 0 24.0536 0H25.4386H28.0827C28.5863 0 29 0.40438 29 0.909856V1.005C29 1.50453 28.5923 1.91486 28.0827 1.91486H24.6172L22.8485 8.11734L20.4143 16.6747C21.7993 17.0197 22.8245 18.2625 22.8245 19.7373C22.8245 21.4084 21.5115 22.7821 19.8507 22.8891C19.9886 23.2816 20.0546 23.7157 20.0186 24.1617C19.8987 25.6722 18.6576 26.8913 17.1347 26.9924C15.318 27.1173 13.8011 25.6841 13.8011 23.912C13.8011 23.5552 13.8611 23.2162 13.975 22.8951H10.3297C10.4796 23.3173 10.5395 23.7871 10.4856 24.2688C10.3177 25.7317 9.10059 26.8853 7.61368 26.9924C5.79701 27.1173 4.27413 25.69 4.27413 23.912C4.27413 22.1933 5.71308 20.8196 7.43981 20.8196H19.6169C20.2104 20.8196 20.7141 20.3617 20.7381 19.779C20.762 19.1605 20.2644 18.655 19.6469 18.655H17.8182H7.90747H5.11951C3.88442 18.655 2.80521 17.8165 2.50543 16.6272L0.0832043 6.95772C-0.126642 6.12517 0.0652161 5.27478 0.60482 4.61469ZM7.38585 22.8891C6.82226 22.8891 6.3606 23.347 6.3606 23.906C6.3606 24.465 6.82226 24.9229 7.38585 24.9229C7.94944 24.9229 8.4111 24.465 8.4111 23.906C8.4111 23.347 7.95543 22.8891 7.38585 22.8891ZM16.9129 22.8891C16.3493 22.8891 15.8876 23.347 15.8876 23.906C15.8876 24.465 16.3493 24.9229 16.9129 24.9229C17.4764 24.9229 17.9381 24.465 17.9381 23.906C17.9381 23.347 17.4824 22.8891 16.9129 22.8891ZM20.6781 8.10545L21.1458 6.47008C21.2177 6.22032 21.1158 6.03597 21.0438 5.94677C20.9779 5.85757 20.822 5.7089 20.5642 5.7089H18.6096L18.076 8.11139H20.6781V8.10545ZM20.0905 10.1749H17.6203L17.1287 12.399H19.461L20.0905 10.1749ZM17.8182 16.5736C18.088 16.5736 18.3278 16.3952 18.3998 16.1336L18.8734 14.4685H16.673L16.2054 16.5677H17.8182V16.5736ZM12.596 16.5736H14.0709L14.5386 14.4744H12.602V16.5736H12.596ZM12.596 12.399H14.9943L15.4859 10.1749H12.596V12.399ZM12.596 8.10545H15.9416L16.4752 5.70295H12.596V8.10545ZM8.85477 16.5736H10.5036V14.4744H8.4111L8.85477 16.5736ZM7.96742 12.399H10.5036V10.1749H7.49377L7.96742 12.399ZM10.5036 8.10545V5.70295H6.54646L7.05609 8.10545H10.5036ZM4.52595 16.1217C4.5919 16.3893 4.83172 16.5796 5.11352 16.5796H6.72034L6.27067 14.4804H4.11225L4.52595 16.1217ZM3.59663 12.399H5.83299L5.35933 10.1749H3.03904L3.59663 12.399ZM2.10972 6.4463L2.52341 8.0995H4.92166L4.41203 5.697H2.69729C2.43948 5.697 2.28959 5.83973 2.22363 5.92893C2.15169 6.01813 2.04377 6.20248 2.10972 6.4463Z" fill="#97AEEB"/>
</svg>
