<svg width="20" height="19" viewBox="0 0 20 19" fill="none" xmlns="http://www.w3.org/2000/svg">
    <rect width="19.461" height="19" fill="black" fill-opacity="0" transform="translate(0.539062)"/>
    <path d="M10.2696 0.00184744C5.01072 -0.0993771 0.659135 3.97172 0.539062 9.10512C0.552784 11.7182 1.73804 14.1944 3.78255 15.8811V18.6042C3.78255 18.8228 3.96408 19 4.188 19C4.26398 19 4.33844 18.9791 4.40287 18.9398L6.66278 17.5617C7.81417 17.9916 9.03683 18.2108 10.2696 18.2084C15.5284 18.3096 19.88 14.2386 20.0001 9.10515C19.88 3.97172 15.5284 -0.0993771 10.2696 0.00184744Z" fill="#2196F3"/>
    <path d="M16.6756 6.49287C16.5549 6.33502 16.3337 6.28779 16.1566 6.38204L11.9401 8.62619L9.31691 6.43031C9.15606 6.29569 8.91614 6.30463 8.76634 6.4509L3.90109 11.2004C3.74324 11.3555 3.744 11.6061 3.90284 11.7602C4.02983 11.8834 4.22456 11.9107 4.38195 11.8274L8.59849 9.58322L11.2241 11.7799C11.3849 11.9145 11.6249 11.9056 11.7747 11.7593L16.6399 7.00975C16.7817 6.87005 16.7969 6.6499 16.6756 6.49287Z" fill="#FAFAFA"/>
</svg>
