<svg width="22" height="22" viewBox="0 0 22 22" fill="none" xmlns="http://www.w3.org/2000/svg">
    <rect width="21.4615" height="21.7" fill="black" fill-opacity="0"/>
    <rect width="21.4615" height="21.7" fill="black" fill-opacity="0"/>
    <rect width="21.4615" height="21.7" fill="black" fill-opacity="0"/>
    <path d="M16.9704 13.4424C16.5304 12.9798 15.9997 12.7325 15.4372 12.7325C14.8793 12.7325 14.344 12.9752 13.8858 13.4378L12.4524 14.8805C12.3344 14.8164 12.2165 14.7568 12.1031 14.6973C11.9398 14.6149 11.7856 14.537 11.654 14.4546C10.3113 13.5935 9.09106 12.4714 7.92072 11.0196C7.3537 10.296 6.97266 9.68685 6.69595 9.06856C7.06792 8.72506 7.41267 8.36783 7.74835 8.02433C7.87536 7.89609 8.00237 7.76328 8.12939 7.63504C9.08199 6.67325 9.08199 5.42751 8.12939 4.46572L6.89101 3.2154C6.75038 3.07342 6.60523 2.92686 6.46914 2.78031C6.19697 2.49635 5.91119 2.20323 5.61633 1.92844C5.17632 1.48876 4.65012 1.25519 4.09671 1.25519C3.54329 1.25519 3.00802 1.48876 2.5544 1.92844C2.54986 1.93302 2.54986 1.93302 2.54533 1.9376L1.00302 3.50852C0.422387 4.09475 0.091245 4.80922 0.0186658 5.63819C-0.090203 6.97553 0.29991 8.22127 0.599299 9.0365C1.33416 11.0379 2.43192 12.8928 4.06949 14.8805C6.05635 17.2758 8.44692 19.1673 11.1777 20.5001C12.221 20.9993 13.6137 21.5901 15.1696 21.6909C15.2648 21.6954 15.3646 21.7 15.4553 21.7C16.5032 21.7 17.3832 21.3199 18.0727 20.5642C18.0773 20.555 18.0863 20.5505 18.0909 20.5413C18.3268 20.2528 18.5989 19.9917 18.8847 19.7123C19.0798 19.5246 19.2794 19.3276 19.4744 19.1215C19.9235 18.6498 20.1594 18.1002 20.1594 17.5369C20.1594 16.9689 19.919 16.4239 19.4608 15.9659L16.9704 13.4424ZM18.5944 18.2651C18.5899 18.2651 18.5899 18.2696 18.5944 18.2651C18.4175 18.4574 18.236 18.6315 18.041 18.8238C17.7461 19.1078 17.4467 19.4055 17.1655 19.7398C16.7073 20.2344 16.1675 20.468 15.4599 20.468C15.3918 20.468 15.3193 20.468 15.2512 20.4634C13.904 20.3764 12.652 19.8451 11.713 19.3917C9.1455 18.1368 6.89101 16.3552 5.01756 14.0973C3.47071 12.215 2.43646 10.4746 1.75149 8.60598C1.32963 7.46558 1.1754 6.57707 1.24344 5.73895C1.2888 5.20309 1.49293 4.75884 1.86943 4.3787L3.41628 2.81695C3.63855 2.60627 3.87443 2.49177 4.10578 2.49177C4.39156 2.49177 4.62291 2.66581 4.76807 2.81237C4.7726 2.81695 4.77714 2.82153 4.78167 2.82611C5.05838 3.08716 5.32148 3.35738 5.59819 3.64591C5.73881 3.79247 5.88397 3.93903 6.02913 4.09017L7.26751 5.34049C7.74835 5.82596 7.74835 6.2748 7.26751 6.76027C7.13596 6.89309 7.00895 7.02591 6.8774 7.15414C6.49636 7.54802 6.13346 7.91441 5.73881 8.27165C5.72974 8.28081 5.72067 8.28539 5.71613 8.29455C5.32602 8.68842 5.3986 9.07314 5.48025 9.33419C5.48478 9.34793 5.48932 9.36167 5.49386 9.37541C5.81593 10.1632 6.26955 10.9051 6.95905 11.789L6.96359 11.7936C8.21558 13.3508 9.53561 14.5645 10.9917 15.4942C11.1777 15.6133 11.3682 15.7095 11.5497 15.8011C11.713 15.8835 11.8672 15.9614 11.9988 16.0438C12.0169 16.053 12.0351 16.0667 12.0532 16.0759C12.2074 16.1537 12.3526 16.1904 12.5023 16.1904C12.8788 16.1904 13.1147 15.9522 13.1918 15.8743L14.7432 14.308C14.8974 14.1523 15.1424 13.9645 15.4281 13.9645C15.7094 13.9645 15.9407 14.1431 16.0813 14.2988C16.0859 14.3034 16.0859 14.3034 16.0904 14.308L18.5899 16.8315C19.0571 17.2987 19.0571 17.7796 18.5944 18.2651Z" fill="#6A8BE2"/>
    <path d="M11.5998 5.16184C12.7883 5.36336 13.8679 5.93127 14.7298 6.80146C15.5916 7.67165 16.1496 8.76167 16.3537 9.96162C16.4036 10.2639 16.6622 10.4746 16.957 10.4746C16.9933 10.4746 17.0251 10.47 17.0614 10.4654C17.397 10.4104 17.6193 10.0899 17.5649 9.75094C17.3199 8.2991 16.6395 6.9755 15.6007 5.92669C14.5619 4.87789 13.251 4.1909 11.813 3.94358C11.4773 3.88862 11.1643 4.11304 11.1053 4.44737C11.0464 4.78171 11.2641 5.10688 11.5998 5.16184Z" fill="#6A8BE2"/>
    <path d="M21.4519 9.57233C21.0482 7.1816 19.9323 5.00614 18.2176 3.27492C16.5029 1.5437 14.3482 0.41704 11.9803 0.00942618C11.6492 -0.050113 11.3362 0.178884 11.2772 0.513219C11.2228 0.852134 11.4451 1.16815 11.7808 1.22769C13.8946 1.5895 15.8225 2.60167 17.3557 4.14511C18.889 5.69313 19.8869 7.6396 20.2453 9.77385C20.2952 10.0761 20.5538 10.2868 20.8486 10.2868C20.8849 10.2868 20.9167 10.2822 20.9529 10.2776C21.2841 10.2273 21.5109 9.90667 21.4519 9.57233Z" fill="#6A8BE2"/>
</svg>
