<svg width="19" height="18" viewBox="0 0 19 18" fill="none" xmlns="http://www.w3.org/2000/svg">
    <rect width="17.1518" height="17.4006" fill="black" fill-opacity="0" transform="translate(0.970703 0.0666504) rotate(0.122334)"/>
    <rect width="17.1518" height="17.4006" fill="black" fill-opacity="0" transform="translate(0.970703 0.0666504) rotate(0.122334)"/>
    <path d="M12.2138 0.0913573C8.95583 0.0841978 6.29945 2.76741 6.2924 6.07272C6.28949 7.43274 6.73587 8.68916 7.48888 9.69776L6.28933 10.9094C6.28172 10.9171 6.27478 10.9252 6.2682 10.9336C6.17026 10.9126 6.0696 10.9016 5.9672 10.9013C5.57638 10.9005 5.20857 11.0541 4.9315 11.334L1.36753 14.934C1.09054 15.2137 0.937567 15.5862 0.93672 15.9827C0.935874 16.3792 1.08726 16.7524 1.36301 17.0332C1.63888 17.3143 2.00604 17.4695 2.39686 17.4704C2.78768 17.4712 3.1555 17.3176 3.43256 17.0378L6.99653 13.4377C7.27352 13.1581 7.4265 12.7856 7.42734 12.389C7.42756 12.2851 7.41708 12.1829 7.39688 12.0835C7.40512 12.0769 7.4131 12.0699 7.42071 12.0622L8.62022 10.8505C9.61116 11.6189 10.8477 12.0771 12.1882 12.0801C15.4463 12.0872 18.1026 9.404 18.1097 6.09869C18.1168 2.79338 15.4719 0.0985168 12.2138 0.0913573ZM3.04044 16.6383C2.86859 16.8119 2.64048 16.9072 2.39806 16.9067C2.15564 16.9061 1.92795 16.8098 1.7568 16.6354C1.58576 16.4613 1.49187 16.2299 1.49239 15.9839C1.49292 15.7379 1.5878 15.507 1.75962 15.3335L4.97829 12.0823L6.259 13.3872L3.04044 16.6383ZM6.65082 12.9875L5.37451 11.687C5.54431 11.5395 5.75499 11.4651 5.966 11.4656C6.19842 11.4661 6.43072 11.5564 6.60726 11.7363C6.7783 11.9105 6.8722 12.1419 6.87167 12.3879C6.87119 12.6106 6.7931 12.8209 6.65082 12.9875ZM7.15979 11.5303C7.11259 11.4627 7.05982 11.3984 7.00105 11.3385C6.9422 11.2786 6.87901 11.2248 6.81254 11.1766L7.84614 10.1325C7.95701 10.2552 8.07286 10.3733 8.19335 10.4863L7.15979 11.5303ZM12.1895 11.5163C9.23779 11.5098 6.84168 9.06841 6.84807 6.07394C6.85446 3.07947 9.26098 0.648603 12.2126 0.655089C15.1643 0.661575 17.5604 3.103 17.554 6.09747C17.5476 9.09194 15.1411 11.5228 12.1895 11.5163Z" fill="#B9B7B7"/>
    <path d="M12.211 1.29413C9.60661 1.28841 7.4832 3.4333 7.47756 6.07547C7.47192 8.71765 9.58615 10.8719 12.1905 10.8776C14.7949 10.8833 16.9184 8.73841 16.924 6.09623C16.9296 3.45406 14.8154 1.29985 12.211 1.29413ZM12.1918 10.3138C9.89379 10.3088 8.02826 8.40803 8.03323 6.07669C8.03821 3.74536 9.91184 1.85281 12.2098 1.85786C14.5078 1.86291 16.3733 3.76368 16.3683 6.09501C16.3633 8.42634 14.4897 10.3189 12.1918 10.3138Z" fill="#B9B7B7"/>
    <path d="M14.137 3.08108C14.0086 2.99579 13.8364 3.0322 13.7524 3.16247C13.6683 3.29269 13.7042 3.46742 13.8326 3.55267C14.6806 4.11601 15.1856 5.0654 15.1834 6.09229C15.1819 6.79384 14.9384 7.47704 14.4977 8.01598C14.3997 8.13576 14.416 8.31349 14.5341 8.41289C14.5858 8.45641 14.6485 8.47767 14.7108 8.47781C14.7908 8.47798 14.8703 8.44324 14.9254 8.37591C15.4483 7.73639 15.7373 6.92581 15.739 6.09355C15.7417 4.87537 15.1428 3.74925 14.137 3.08108Z" fill="#B9B7B7"/>
    <path d="M12.8514 2.5572C12.6408 2.51745 12.4245 2.49706 12.2085 2.49658C12.055 2.49625 11.9304 2.62219 11.9301 2.77788C11.9297 2.93357 12.0538 3.06006 12.2073 3.0604C12.3897 3.0608 12.5722 3.078 12.7498 3.11151C12.7668 3.1147 12.7837 3.11628 12.8004 3.11631C12.9318 3.1166 13.0489 3.02173 13.0738 2.8859C13.1019 2.73283 13.0023 2.58568 12.8514 2.5572Z" fill="#B9B7B7"/>
</svg>
