<svg width="19" height="19" viewBox="0 0 19 19" fill="none" xmlns="http://www.w3.org/2000/svg">
    <rect width="18.7658" height="19" fill="black" fill-opacity="0"/>
    <path d="M9.38291 19C14.5649 19 18.7658 14.7467 18.7658 9.5C18.7658 4.25329 14.5649 0 9.38291 0C4.20087 0 0 4.25329 0 9.5C0 14.7467 4.20087 19 9.38291 19Z" fill="#41B4E6"/>
    <path d="M18.7657 9.50011C18.7657 9.26862 18.7571 9.03924 18.741 8.81187L14.8522 4.87463L3.91309 9.23129L8.09846 13.4689L8.15337 13.669L8.22444 13.5965L8.22473 13.5968L8.15337 13.669L12.7832 18.3566C16.2842 16.9776 18.7657 13.5325 18.7657 9.50011Z" fill="#0091C8"/>
    <path d="M8.47144 10.8842L12.7118 14.1256L14.8523 4.87463L3.91309 9.23129L7.24175 10.3476L13.3166 6.22187L8.47144 10.8842Z" fill="white"/>
    <path d="M7.2417 10.3476L8.15336 13.6691L8.47139 10.8842L13.3166 6.22186L7.2417 10.3476Z" fill="#D2D2D7"/>
    <path d="M9.84997 11.9376L8.15381 13.669L8.47184 10.8842L9.84997 11.9376Z" fill="#B9B9BE"/>
</svg>