<svg width="32" height="32" viewBox="0 0 32 32" fill="none" xmlns="http://www.w3.org/2000/svg">
    <g opacity="0.7">
        <rect width="14.9333" height="14.2222" fill="black" fill-opacity="0" transform="translate(8.5332 7.8222)"/>
        <path d="M19.2109 14.5559C18.9328 14.4204 18.615 14.4398 18.337 14.6139C17.6418 15.0396 16.8474 15.2718 15.9934 15.2718C15.1394 15.2718 14.3449 15.0396 13.6498 14.6139C13.3916 14.4591 13.054 14.4204 12.7759 14.5559C10.7104 15.5814 9.1612 17.5744 8.58524 19.9738C8.32705 21.0187 9.06189 22.0442 10.0748 22.0442H21.8921C22.8851 22.0442 23.62 21.0187 23.3816 19.9738C22.8256 17.5744 21.2764 15.5814 19.2109 14.5559Z" fill="#6A8BE2"/>
        <path d="M23.4216 19.9931C23.1634 18.9675 22.7463 18.0001 22.1703 17.168C22.5477 17.8259 22.8258 18.5612 23.0045 19.3352C23.2627 20.3801 22.5278 21.4056 21.5149 21.4056H9.69766C9.28059 21.4056 8.92309 21.2314 8.64502 20.9606C8.86348 21.5797 9.41959 22.0441 10.0949 22.0441H21.9121C22.9251 22.0635 23.6599 21.0379 23.4216 19.9931Z" fill="#6A8BE2"/>
        <path d="M19.1909 10.9181C19.1909 12.6209 17.7609 14.014 16.0132 14.014C14.2654 14.014 12.8354 12.6209 12.8354 10.9181C12.8354 9.21537 14.2654 7.8222 16.0132 7.8222C17.7609 7.8222 19.1909 9.21537 19.1909 10.9181Z" fill="#6A8BE2"/>
    </g>
    <circle cx="16" cy="16" r="15.2889" stroke="#6A8BE2" stroke-opacity="0.5" stroke-width="1.42222"/>
</svg>
