<svg width="21" height="19" viewBox="0 0 21 19" fill="none" xmlns="http://www.w3.org/2000/svg">
    <rect width="19.461" height="19" fill="black" fill-opacity="0" transform="translate(0.716309)"/>
    <path d="M10.4468 19C15.8208 19 20.1773 14.7467 20.1773 9.5C20.1773 4.25329 15.8208 0 10.4468 0C5.0728 0 0.716309 4.25329 0.716309 9.5C0.716309 14.7467 5.0728 19 10.4468 19Z" fill="#6F3FAA"/>
    <path d="M14.6679 5.21174C12.2994 4.65324 9.92675 3.99997 7.49785 4.82996C5.92524 5.40571 5.92524 7.06903 5.99077 8.47644C5.99077 8.86026 5.5321 9.37207 5.72865 9.81987C6.12179 11.0993 6.44943 12.3788 7.82546 13.0185C8.02205 13.1465 7.82546 13.4023 7.95652 13.5943C7.89099 13.5943 7.75993 13.6582 7.75993 13.7222C7.75993 14.0289 7.90087 14.4979 7.80725 14.8002L11.9886 18.8808C16.2871 18.2125 19.6467 14.7962 20.1194 10.5341L14.6679 5.21174Z" fill="#512D84"/>
    <rect width="10.7771" height="10.8753" fill="black" fill-opacity="0" transform="translate(5.05859 4.06232)"/>
    <path d="M15.5946 6.67688L15.5914 6.66433C15.3315 5.63815 14.1593 4.53704 13.0829 4.30796L13.0707 4.30551C11.3297 3.98125 9.56431 3.98125 7.82361 4.30551L7.81111 4.30796C6.73505 4.53704 5.56287 5.63822 5.30254 6.66433L5.29965 6.67688C4.97824 8.10993 4.97824 9.56328 5.29965 10.9963L5.30254 11.0089C5.55181 11.9912 6.63665 13.0418 7.67291 13.3307V14.4762C7.67291 14.8908 8.19041 15.0944 8.48468 14.7952L9.67344 13.5888C9.93129 13.6029 10.1893 13.6108 10.4472 13.6108C11.3236 13.6108 12.2004 13.5298 13.0707 13.3677L13.0828 13.3653C14.1593 13.1362 15.3314 12.035 15.5914 11.0089L15.5946 10.9964C15.916 9.56328 15.916 8.11 15.5946 6.67688ZM14.6539 10.7886C14.4803 11.458 13.5903 12.2903 12.8832 12.4441C11.9574 12.616 11.0243 12.6894 10.0922 12.6643C10.0736 12.6637 10.0558 12.6708 10.0429 12.6838C9.91062 12.8163 9.17497 13.5537 9.17497 13.5537L8.25179 14.4788C8.18429 14.5475 8.0657 14.5007 8.0657 14.4059V12.5082C8.0657 12.4769 8.04278 12.4503 8.01123 12.4442C8.01104 12.4441 8.01089 12.4441 8.0107 12.4441C7.30356 12.2903 6.41391 11.458 6.24001 10.7885C5.95072 9.49318 5.95072 8.18003 6.24001 6.88469C6.41391 6.2152 7.30356 5.38291 8.0107 5.22913C9.62748 4.92891 11.2668 4.92891 12.8832 5.22913C13.5907 5.38291 14.4803 6.2152 14.6539 6.88469C14.9435 8.18007 14.9435 9.49322 14.6539 10.7886Z" fill="white"/>
    <path d="M11.9849 11.6645C11.8762 11.6322 11.7726 11.6106 11.6763 11.5717C10.6793 11.1678 9.76172 10.6468 9.03493 9.84818C8.62161 9.39403 8.29811 8.88129 8.02467 8.33868C7.89498 8.08136 7.7857 7.81399 7.6743 7.54829C7.57273 7.30604 7.72234 7.05577 7.87985 6.87319C8.02767 6.70186 8.21791 6.57079 8.42392 6.47412C8.58471 6.39871 8.74328 6.4422 8.86073 6.57524C9.11456 6.86291 9.34779 7.16528 9.53655 7.49875C9.65267 7.70385 9.62081 7.95456 9.41035 8.09413C9.35919 8.12805 9.31259 8.1679 9.26497 8.2062C9.22316 8.23978 9.18385 8.2737 9.15519 8.31916C9.10285 8.40232 9.10035 8.50048 9.13402 8.59091C9.39351 9.28712 9.83089 9.82855 10.5487 10.1202C10.6636 10.1668 10.7789 10.2211 10.9112 10.2061C11.1328 10.1808 11.2046 9.94347 11.3599 9.81949C11.5117 9.69833 11.7057 9.69673 11.8692 9.79775C12.0327 9.89883 12.1912 10.0073 12.3488 10.1169C12.5035 10.2245 12.6575 10.3297 12.8001 10.4525C12.9374 10.5704 12.9846 10.7252 12.9073 10.8852C12.7659 11.1784 12.5601 11.4223 12.2633 11.578C12.1795 11.6219 12.0794 11.6361 11.9849 11.6645C11.8762 11.6322 12.0794 11.6361 11.9849 11.6645Z" fill="white"/>
    <path d="M10.4494 6.13887C11.7535 6.17457 12.8246 7.01951 13.0541 8.27826C13.0933 8.49275 13.1072 8.712 13.1246 8.92972C13.1319 9.02127 13.0788 9.10825 12.9776 9.10948C12.8731 9.1107 12.826 9.02527 12.8192 8.9338C12.8058 8.75263 12.7965 8.57061 12.7709 8.391C12.6359 7.44252 11.8613 6.65784 10.8943 6.48948C10.7488 6.46413 10.5999 6.45749 10.4525 6.44239C10.3593 6.43285 10.2373 6.42736 10.2167 6.31425C10.1994 6.21943 10.2813 6.14395 10.3738 6.13909C10.3989 6.13765 10.4241 6.1388 10.4494 6.13887C11.7535 6.17457 10.4241 6.1388 10.4494 6.13887Z" fill="white"/>
    <path d="M12.4315 8.64715C12.4294 8.66307 12.4283 8.70044 12.4187 8.73562C12.3841 8.86342 12.1855 8.87942 12.1399 8.75046C12.1263 8.7122 12.1243 8.66864 12.1242 8.62744C12.1238 8.35781 12.0637 8.08839 11.9244 7.85375C11.7813 7.61258 11.5625 7.40992 11.3059 7.2872C11.1508 7.21306 10.983 7.16693 10.813 7.13951C10.7387 7.12748 10.6636 7.12025 10.5889 7.11008C10.4984 7.0978 10.45 7.0415 10.4544 6.95444C10.4584 6.87288 10.5194 6.81413 10.6105 6.81922C10.9098 6.83577 11.1989 6.899 11.465 7.03653C12.006 7.3163 12.3151 7.75782 12.4053 8.34745C12.4094 8.37421 12.4159 8.40063 12.418 8.42742C12.4231 8.49355 12.4264 8.55979 12.4315 8.64715C12.4294 8.66299 12.4264 8.55979 12.4315 8.64715Z" fill="white"/>
    <path d="M11.62 8.61631C11.5109 8.61824 11.4525 8.55924 11.4413 8.46164C11.4335 8.39358 11.4272 8.32456 11.4106 8.25828C11.3778 8.12777 11.3068 8.00686 11.1943 7.92689C11.1413 7.88915 11.0811 7.86166 11.0181 7.84384C10.9381 7.82124 10.855 7.82748 10.7752 7.8084C10.6885 7.78766 10.6405 7.71908 10.6542 7.6397C10.6665 7.56742 10.7385 7.51101 10.8195 7.51676C11.3251 7.55239 11.6864 7.80759 11.738 8.38872C11.7417 8.42973 11.7459 8.47303 11.7366 8.51233C11.7206 8.57939 11.6697 8.61305 11.62 8.61631C11.5109 8.6182 11.6697 8.61305 11.62 8.61631Z" fill="white"/>
    <path d="M15.5949 6.67684L15.5917 6.6643C15.446 6.08907 15.0135 5.49034 14.472 5.03479L13.74 5.66817C14.1752 6.0068 14.5482 6.4759 14.6542 6.88462C14.9438 8.17999 14.9438 9.49311 14.6542 10.7885C14.4806 11.458 13.5906 12.2903 12.8835 12.4441C11.9578 12.616 11.0247 12.6894 10.0925 12.6642C10.074 12.6637 10.0561 12.6707 10.0432 12.6837C9.91093 12.8163 9.17529 13.5537 9.17529 13.5537L8.25211 14.4787C8.18461 14.5474 8.06602 14.5007 8.06602 14.4058V12.5082C8.06602 12.4769 8.0431 12.4502 8.01155 12.4442C8.01136 12.4442 8.01121 12.4441 8.01102 12.4441C7.60914 12.3567 7.1485 12.0501 6.79364 11.6789L6.07031 12.3046C6.52206 12.7844 7.10471 13.1723 7.67311 13.3307V14.4762C7.67311 14.8909 8.19061 15.0945 8.48488 14.7953L9.67364 13.5889C9.9315 13.6029 10.1894 13.6108 10.4474 13.6108C11.3238 13.6108 12.2006 13.5299 13.0709 13.3678L13.083 13.3654C14.1595 13.1363 15.3316 12.0352 15.5916 11.009L15.5948 10.9964C15.9162 9.56325 15.9162 8.10997 15.5949 6.67684Z" fill="#D1D1D1"/>
    <path d="M11.9851 11.6645C12.0796 11.6361 11.8764 11.6323 11.9851 11.6645V11.6645Z" fill="white"/>
    <path d="M12.8001 10.4524C12.6575 10.3297 12.5034 10.2245 12.3488 10.1168C12.1912 10.0072 12.0327 9.89875 11.8691 9.79767C11.7057 9.69665 11.5117 9.69825 11.3599 9.81941C11.2046 9.94339 11.1328 10.1807 10.9112 10.206C10.7789 10.221 10.6635 10.1667 10.5487 10.1201C10.107 9.94072 9.77195 9.66641 9.51869 9.32007L8.98047 9.78579C8.99875 9.80646 9.0162 9.82769 9.03478 9.8481C9.76161 10.6467 10.6792 11.1677 11.6762 11.5716C11.7724 11.6106 11.876 11.6322 11.9847 11.6644C11.876 11.6322 12.0793 11.636 11.9847 11.6644C12.0793 11.636 12.1793 11.6217 12.2632 11.5779C12.5601 11.4222 12.7659 11.1783 12.9073 10.8851C12.9846 10.7251 12.9373 10.5704 12.8001 10.4524Z" fill="#D1D1D1"/>
    <rect width="0.574407" height="0.0158469" fill="black" fill-opacity="0" transform="translate(10.4492 6.13885)"/>
    <path d="M10.4535 6.13921C10.4522 6.13921 10.4509 6.13907 10.4496 6.13907C10.4484 6.13898 10.45 6.13907 10.4535 6.13921Z" fill="white"/>
    <path d="M10.4497 6.13885C10.4508 6.13885 10.4519 6.13897 10.453 6.13897C10.5253 6.14149 11.7024 6.17314 10.4497 6.13885Z" fill="white"/>
    <rect width="1.50078" height="2.21318" fill="black" fill-opacity="0" transform="translate(11.625 6.8963)"/>
    <path d="M12.3203 6.8963L12.0908 7.09487C12.4514 7.43739 12.7001 7.89135 12.7712 8.39092C12.7967 8.5706 12.8061 8.75255 12.8195 8.93372C12.8263 9.02527 12.8733 9.11065 12.9779 9.10947C13.0791 9.10824 13.1322 9.0213 13.1249 8.92971C13.1074 8.71203 13.0936 8.49271 13.0544 8.27825C12.954 7.72725 12.6922 7.25556 12.3203 6.8963Z" fill="#D1D1D1"/>
    <path d="M12.4053 8.3473C12.3396 7.91765 12.1571 7.56704 11.8538 7.29993L11.625 7.49791C11.7433 7.60044 11.8457 7.72086 11.9245 7.85367C12.0638 8.08832 12.1238 8.35773 12.1243 8.62737C12.1244 8.66856 12.1264 8.71212 12.14 8.75046C12.1857 8.87949 12.3842 8.86349 12.4188 8.73561C12.4283 8.70036 12.4294 8.66299 12.4316 8.64715C12.4294 8.66307 12.4264 8.55983 12.4316 8.64715C12.4264 8.55983 12.4232 8.49355 12.418 8.42735C12.416 8.40044 12.4094 8.37402 12.4053 8.3473Z" fill="#D1D1D1"/>
    <rect width="0.850429" height="0.0372225" fill="black" fill-opacity="0" transform="translate(11.5811 8.61163)"/>
    <path d="M12.4316 8.64717C12.4264 8.55981 12.4294 8.66301 12.4316 8.64717V8.64717Z" fill="white"/>
    <path d="M11.6229 8.61698C11.6248 8.61686 11.6265 8.61593 11.6283 8.61572C11.6233 8.61572 11.6157 8.61584 11.6079 8.61613C11.613 8.61625 11.6176 8.61702 11.6229 8.61698Z" fill="white"/>
    <path d="M11.6213 8.61722C11.6163 8.6173 11.6118 8.61655 11.607 8.61639C11.5827 8.61706 11.5576 8.61836 11.6213 8.61722Z" fill="white"/>
    <path d="M11.6267 8.61542C11.6248 8.61564 11.6229 8.61665 11.6211 8.61678C11.6355 8.61577 11.6343 8.61542 11.6267 8.61542Z" fill="white"/>
    <path d="M11.3902 7.70117L11.1572 7.90275C11.1701 7.91036 11.1827 7.9183 11.1949 7.92695C11.3073 8.00692 11.3783 8.12782 11.4111 8.25833C11.4277 8.32461 11.4339 8.39356 11.4418 8.46169C11.4525 8.55495 11.5068 8.61228 11.6066 8.61562C11.6138 8.61544 11.621 8.61529 11.6255 8.61525C11.6736 8.61005 11.7217 8.57718 11.7371 8.51231C11.7464 8.47308 11.7422 8.4297 11.7385 8.3887C11.7095 8.0638 11.5837 7.84089 11.3902 7.70117Z" fill="#D1D1D1"/>
</svg>
