<svg width="20" height="19" viewBox="0 0 20 19" fill="none" xmlns="http://www.w3.org/2000/svg">
    <rect width="19.461" height="19" fill="black" fill-opacity="0" transform="translate(0.12793)"/>
    <path d="M9.86086 0H9.856C4.49084 0 0.12793 4.26075 0.12793 9.5C0.12793 11.5781 0.81393 13.5043 1.98037 15.0682L0.76771 18.5974L4.50787 17.4301C6.04651 18.4253 7.88192 19 9.86086 19C15.226 19 19.5889 14.7381 19.5889 9.5C19.5889 4.26194 15.226 0 9.86086 0Z" fill="#4CAF50"/>
    <path d="M15.5229 13.4152C15.2881 14.0624 14.3564 14.5992 13.6133 14.7559C13.1048 14.8616 12.4407 14.9459 10.2051 14.041C7.3456 12.8844 5.5041 10.0475 5.36057 9.8634C5.22313 9.67934 4.20508 8.36122 4.20508 6.99797C4.20508 5.63472 4.91419 4.97091 5.20002 4.68591C5.43477 4.45197 5.82277 4.34509 6.19497 4.34509C6.31538 4.34509 6.42363 4.35103 6.52094 4.35578C6.80677 4.36766 6.9503 4.38428 7.13882 4.82484C7.37357 5.37703 7.94524 6.74028 8.01335 6.88041C8.08268 7.02053 8.15201 7.21053 8.05471 7.39459C7.96348 7.58459 7.88321 7.66891 7.73968 7.8304C7.59616 7.9919 7.45993 8.11541 7.31641 8.28878C7.18504 8.43959 7.03665 8.60109 7.20207 8.88016C7.36749 9.15328 7.93916 10.0641 8.78085 10.7956C9.86701 11.7397 10.7476 12.0413 11.0626 12.1695C11.2974 12.2645 11.5771 12.242 11.7486 12.0638C11.9664 11.8347 12.2352 11.4547 12.5088 11.0806C12.7035 10.8122 12.9491 10.779 13.207 10.874C13.4697 10.963 14.86 11.634 15.1458 11.7729C15.4316 11.913 15.6202 11.9795 15.6895 12.0971C15.7576 12.2147 15.7576 12.7668 15.5229 13.4152Z" fill="#FAFAFA"/>
</svg>
