<svg width="28" height="25" viewBox="0 0 28 25" fill="none" xmlns="http://www.w3.org/2000/svg">
    <rect width="27.1246" height="25" fill="black" fill-opacity="0" transform="translate(0.71875)"/>
    <path fill-rule="evenodd" clip-rule="evenodd" d="M2.97913 0H25.5829C26.8313 0 27.8433 0.93274 27.8433 2.08333V22.9167C27.8433 24.0673 26.8313 25 25.5829 25H2.97913C1.73076 25 0.71875 24.0673 0.71875 22.9167V2.08333C0.71875 0.93274 1.73076 0 2.97913 0Z" fill="url(#paint0_linear)"/>
    <path fill-rule="evenodd" clip-rule="evenodd" d="M19.0845 17.2961H9.47791C9.25696 17.2961 9.07764 17.1308 9.07764 16.9272V11.3933H10.6787C10.4702 11.67 10.3997 12.1861 10.3997 12.5137C10.3997 14.4893 12.1478 16.0967 14.296 16.0967C16.4447 16.0967 18.1927 14.4893 18.1927 12.5137C18.1927 12.1861 18.1423 11.6778 17.8837 11.3933H19.4848V16.9272C19.4848 17.1308 19.3055 17.2961 19.0845 17.2961ZM14.2959 10.2488C15.6564 10.2488 16.7592 11.263 16.7592 12.5136C16.7592 13.7646 15.6564 14.7788 14.2959 14.7788C12.9358 14.7788 11.833 13.7646 11.833 12.5136C11.833 11.263 12.9358 10.2488 14.2959 10.2488ZM17.4833 8.07275H18.6841C18.9051 8.07275 19.0844 8.23803 19.0844 8.44168V9.54845C19.0844 9.75209 18.9051 9.91737 18.6841 9.91737H17.4833C17.2623 9.91737 17.083 9.75209 17.083 9.54845V8.44168C17.083 8.23803 17.2623 8.07275 17.4833 8.07275ZM19.1626 6.59717H9.39911C8.55813 6.59717 7.87646 7.22397 7.87646 7.99723V17.0027C7.87646 17.7759 8.55813 18.4027 9.39911 18.4027H19.1626C20.0036 18.4027 20.6853 17.7759 20.6853 17.0027V7.99723C20.6853 7.22397 20.0036 6.59717 19.1626 6.59717Z" fill="white"/>
    <defs>
        <linearGradient id="paint0_linear" x1="14.281" y1="0" x2="14.281" y2="25" gradientUnits="userSpaceOnUse">
            <stop stop-color="#2723FE" stop-opacity="0.9"/>
            <stop offset="0.61326" stop-color="#FE2323"/>
            <stop offset="0.9999" stop-color="#FFEE57" stop-opacity="0.8"/>
        </linearGradient>
    </defs>
</svg>
