<svg width="25" height="25" viewBox="0 0 27 25" fill="none" xmlns="http://www.w3.org/2000/svg">
    <rect width="27.1246" height="25" fill="black" fill-opacity="0"/>
    <path fill-rule="evenodd" clip-rule="evenodd" d="M2.26038 0H24.8642C26.1126 0 27.1246 0.93274 27.1246 2.08333V22.9167C27.1246 24.0673 26.1126 25 24.8642 25H2.26038C1.01201 25 0 24.0673 0 22.9167V2.08333C0 0.93274 1.01201 0 2.26038 0Z" fill="#6A8BE2"/>
    <path fill-rule="evenodd" clip-rule="evenodd" d="M21.097 8.28002C20.5428 8.50654 19.9466 8.65972 19.3212 8.72871C19.9598 8.37592 20.45 7.81787 20.6808 7.15263C20.0836 7.47896 19.4215 7.71589 18.7175 7.8439C18.1534 7.29019 17.35 6.94434 16.4609 6.94434C14.7534 6.94434 13.3694 8.2197 13.3694 9.79318C13.3694 10.0162 13.3967 10.2336 13.4494 10.4424C10.8796 10.3235 8.60184 9.18913 7.07703 7.4655C6.81096 7.88643 6.65838 8.37592 6.65838 8.89795C6.65838 9.88604 7.20417 10.7583 8.03345 11.269C7.52675 11.2543 7.05018 11.1263 6.63343 10.9128C6.63295 10.9249 6.63295 10.9366 6.63295 10.9488C6.63295 12.3292 7.69863 13.4804 9.11325 13.7421C8.85378 13.8072 8.58065 13.8419 8.29857 13.8419C8.09938 13.8419 7.90583 13.8241 7.717 13.7911C8.11021 14.9228 9.25217 15.7465 10.6051 15.7695C9.54696 16.5336 8.21381 16.9888 6.76528 16.9888C6.5157 16.9888 6.26988 16.9754 6.02783 16.9494C7.39583 17.7574 9.02095 18.2291 10.7671 18.2291C16.4538 18.2291 19.5633 13.8879 19.5633 10.1234C19.5633 9.99974 19.5605 9.87693 19.5543 9.75456C20.1585 9.35316 20.6826 8.85152 21.097 8.28002Z" fill="white"/>
</svg>
