<svg width="28" height="25" viewBox="0 0 28 25" fill="none" xmlns="http://www.w3.org/2000/svg">
    <rect width="27.1246" height="25" fill="black" fill-opacity="0"/>
    <path fill-rule="evenodd" clip-rule="evenodd" d="M2.26038 0H24.8642C26.1126 0 27.1246 0.93274 27.1246 2.08333V22.9167C27.1246 24.0673 26.1126 25 24.8642 25H2.26038C1.01201 25 0 24.0673 0 22.9167V2.08333C0 0.93274 1.01201 0 2.26038 0Z" fill="#6A8BE2"/>
    <path fill-rule="evenodd" clip-rule="evenodd" d="M20.1547 18.2293H17.4363V14.2751C17.4363 13.3321 17.4191 12.1191 16.0238 12.1191C14.6097 12.1191 14.3937 13.1468 14.3937 14.2075V18.2293H11.6782V10.0978H14.2843V11.2096H14.3216C14.6841 10.5701 15.5708 9.896 16.8933 9.896C19.646 9.896 20.1547 11.5797 20.1547 13.7698V18.2293ZM8.55468 9.00271C7.67676 9.00271 6.96924 8.34729 6.96924 7.5393C6.96924 6.73184 7.67676 6.07642 8.55468 6.07642C9.42858 6.07642 10.1384 6.73184 10.1384 7.5393C10.1384 8.34729 9.42858 9.00271 8.55468 9.00271ZM9.98325 18.2293H7.25195V10.0696H9.98325V18.2293Z" fill="white"/>
</svg>
