<svg width="71" height="73" viewBox="0 0 71 73" fill="none" xmlns="http://www.w3.org/2000/svg">
    <rect width="71" height="73" fill="black" fill-opacity="0"/>
    <path d="M48.058 60.5751C44.6966 60.5751 42.0838 63.3759 42.0838 66.7876C42.0838 70.1992 44.8434 73 48.058 73C51.2726 73 54.0321 70.1992 54.0321 66.7876C54.0321 63.3759 51.2726 60.5751 48.058 60.5751ZM48.058 69.8863C46.3699 69.8863 45.1516 68.4859 45.1516 66.7727C45.1516 65.0594 46.5314 63.659 48.058 63.659C49.5845 63.659 50.9643 65.0594 50.9643 66.7727C50.9643 68.4859 49.5845 69.8863 48.058 69.8863Z" fill="#CBD7F5"/>
    <path d="M15.4566 60.5751C12.0952 60.5751 9.48242 63.3759 9.48242 66.7876C9.48242 70.1992 12.242 73 15.4566 73C18.818 73 21.4307 70.1992 21.4307 66.7876C21.4307 63.3759 18.6712 60.5751 15.4566 60.5751ZM15.4566 69.8863C13.7685 69.8863 12.5502 68.4859 12.5502 66.7727C12.5502 65.0594 13.93 63.659 15.4566 63.659C17.1446 63.659 18.3629 65.0594 18.3629 66.7727C18.3629 68.5008 16.9978 69.8863 15.4566 69.8863Z" fill="#CBD7F5"/>
    <path d="M62.4424 0L60.0645 9.4751H0L11.0823 42.8018C7.36862 43.3531 4.59438 46.5412 4.59438 50.6382C4.59438 55.1374 7.95576 58.7129 12.2419 58.7129H53.8702V55.7631H12.2419C9.64379 55.7631 7.64751 53.588 7.64751 50.7871C7.64751 47.9863 9.79057 45.8112 12.2419 45.8112H53.8702H54.017L64.8791 3.09878H71V0H62.4424ZM51.7271 42.7125H14.2382L4.28613 12.5739H59.2278L51.7271 42.7125Z" fill="#CBD7F5"/>
    <path d="M22.5027 19.8739H19.4349V37.4237H22.5027V19.8739Z" fill="#CBD7F5"/>
    <path d="M33.3788 19.8739H30.311V37.4237H33.3788V19.8739Z" fill="#CBD7F5"/>
    <path d="M44.2417 19.8739H41.1739V37.4237H44.2417V19.8739Z" fill="#CBD7F5"/>
</svg>
