<svg width="66" height="84" viewBox="0 0 66 84" fill="none" xmlns="http://www.w3.org/2000/svg">
    <rect width="66" height="84" fill="black" fill-opacity="0"/>
    <rect width="66" height="57.931" fill="black" fill-opacity="0"/>
    <rect width="66" height="57.931" fill="black" fill-opacity="0"/>
    <path d="M65.9381 11.1969C65.9381 11.1795 65.9381 11.1635 65.9381 11.1462C65.8696 10.924 65.7421 10.7251 65.5694 10.5712C65.4885 10.4895 65.3985 10.4175 65.3011 10.3568C65.246 10.3241 65.189 10.2951 65.1303 10.2699C65.0895 10.2464 65.0473 10.225 65.0041 10.2062L33.439 0.0680254C33.1561 -0.0226751 32.8523 -0.0226751 32.5695 0.0680254L1.00435 10.2062C0.407657 10.3956 0.00125543 10.9535 0 11.585V46.3445C0.000538042 46.9765 0.407119 47.5352 1.00435 47.7247L32.5695 57.8629C32.8523 57.9536 33.1561 57.9536 33.439 57.8629L39.1781 56.0207C39.9337 55.7783 40.3515 54.9636 40.1114 54.2009C39.8712 53.4382 39.0642 53.0163 38.3086 53.2587L34.4347 54.5014V49.2411C34.4347 48.4413 33.7923 47.7928 32.9999 47.7928C32.2076 47.7928 31.5651 48.4413 31.5651 49.2411V54.5014L2.86956 45.2858V12.6437L12.4352 9.57185L39.2656 18.1908L32.9999 20.2025L9.03911 12.509C8.28387 12.2666 7.47717 12.6881 7.23702 13.4504C6.99688 14.2128 7.4144 15.0271 8.16963 15.2695L31.5651 22.7819V43.4479C31.5651 44.2477 32.2076 44.8962 32.9999 44.8962C33.7923 44.8962 34.4347 44.2477 34.4347 43.4479V22.7819L42.5656 20.1749V29.7831C42.5656 30.5829 43.208 31.2314 44.0004 31.2314C44.1463 31.2305 44.2914 31.2075 44.4308 31.1633L47.7781 30.0858C48.5334 29.8433 48.9509 29.029 48.7107 28.2667C48.4706 27.5043 47.6639 27.0829 46.9087 27.3253L45.4308 27.8003V19.2553L52.8429 16.8742V25.4193L51.213 25.9421C50.4578 26.1845 50.0402 26.9989 50.2804 27.7612C50.4692 28.361 51.0202 28.7689 51.6434 28.7707C51.7896 28.7709 51.9349 28.7479 52.0739 28.7026L54.7052 27.8582C55.3025 27.6687 55.7091 27.11 55.7096 26.478V15.9473L63.1303 13.5663V45.2843L61.265 45.8854C60.5026 46.1034 60.0595 46.9037 60.2754 47.6735C60.4913 48.4431 61.2844 48.8905 62.0468 48.6725C62.0734 48.6649 62.0999 48.6566 62.1261 48.6473L64.9957 47.7247C65.5929 47.5352 65.9995 46.9765 66 46.3445V11.585C65.9969 11.4534 65.9761 11.3229 65.9381 11.1969ZM43.9989 16.67L17.1686 8.05257L22.7183 6.2697L49.5486 14.8872L43.9989 16.67ZM54.2805 13.3679L27.4516 4.74897L32.9999 2.96755L59.8303 11.585L54.2805 13.3679Z" fill="#CBD7F5"/>
    <rect width="2.86956" height="7.24156" fill="black" fill-opacity="0" transform="translate(5.73871 36.2063)"/>
    <rect width="2.86956" height="7.24156" fill="black" fill-opacity="0" transform="translate(5.73871 36.2063)"/>
    <path d="M7.17349 36.2063C6.38113 36.2063 5.73871 36.8548 5.73871 37.6546V41.9996C5.73871 42.7994 6.38113 43.4479 7.17349 43.4479C7.96584 43.4479 8.60827 42.7994 8.60827 41.9996V37.6546C8.60827 36.8548 7.96584 36.2063 7.17349 36.2063Z" fill="#CBD7F5"/>
    <rect width="2.86956" height="7.24156" fill="black" fill-opacity="0" transform="translate(11.4785 37.6546)"/>
    <rect width="2.86956" height="7.24156" fill="black" fill-opacity="0" transform="translate(11.4785 37.6546)"/>
    <path d="M12.9132 37.6546C12.1209 37.6546 11.4785 38.3031 11.4785 39.1029V43.4479C11.4785 44.2477 12.1209 44.8962 12.9132 44.8962C13.7056 44.8962 14.348 44.2477 14.348 43.4479V39.1029C14.348 38.3031 13.7056 37.6546 12.9132 37.6546Z" fill="#CBD7F5"/>
    <rect width="48.7815" height="43.4487" fill="black" fill-opacity="0" transform="translate(8.6098 40.5513)"/>
    <rect width="48.7815" height="43.4487" fill="black" fill-opacity="0" transform="translate(8.6098 40.5513)"/>
    <path d="M55.9565 40.5513C55.1642 40.5513 54.5218 41.1998 54.5218 41.9996V62.276C54.5139 69.4715 48.7371 75.3028 41.6087 75.3108H24.3914C23.599 75.3108 22.9566 75.9592 22.9566 76.7591V79.7701L12.5459 72.4141L22.9566 65.0582V68.0692C22.9566 68.869 23.599 69.5175 24.3914 69.5175H37.3044C42.0569 69.5128 45.9084 65.625 45.9131 60.8276V55.0344C45.9131 54.2346 45.2707 53.5861 44.4783 53.5861C43.6859 53.5861 43.0435 54.2346 43.0435 55.0344V60.8276C43.0435 64.0271 40.474 66.6209 37.3044 66.6209H25.8262V62.276C25.8258 61.4761 25.183 60.828 24.3907 60.8284C24.0969 60.8285 23.8101 60.9198 23.5693 61.0898L9.22149 71.228C8.57243 71.6869 8.41496 72.5901 8.86961 73.2451C8.96556 73.3832 9.08464 73.5035 9.22149 73.6003L23.5693 83.7385C24.2187 84.1969 25.1133 84.037 25.5672 83.3815C25.7356 83.1384 25.826 82.8491 25.8262 82.5523V78.2074H41.6087C50.3209 78.1971 57.3811 71.0703 57.3913 62.276V41.9996C57.3913 41.1998 56.7489 40.5513 55.9565 40.5513Z" fill="#CBD7F5"/>
    <rect width="2.86956" height="5.79325" fill="black" fill-opacity="0" transform="translate(43.0432 44.8962)"/>
    <rect width="2.86956" height="5.79325" fill="black" fill-opacity="0" transform="translate(43.0432 44.8962)"/>
    <path d="M44.4779 44.8962C43.6856 44.8962 43.0432 45.5447 43.0432 46.3445V49.2411C43.0432 50.0409 43.6856 50.6894 44.4779 50.6894C45.2703 50.6894 45.9127 50.0409 45.9127 49.2411V46.3445C45.9127 45.5447 45.2703 44.8962 44.4779 44.8962Z" fill="#CBD7F5"/>
    <rect width="2.86956" height="5.79325" fill="black" fill-opacity="0" transform="translate(54.5215 31.8614)"/>
    <rect width="2.86956" height="5.79325" fill="black" fill-opacity="0" transform="translate(54.5215 31.8614)"/>
    <path d="M55.9563 31.8614C55.164 31.8614 54.5215 32.5099 54.5215 33.3097V36.2063C54.5215 37.0062 55.164 37.6546 55.9563 37.6546C56.7487 37.6546 57.3911 37.0062 57.3911 36.2063V33.3097C57.3911 32.5099 56.7487 31.8614 55.9563 31.8614Z" fill="#CBD7F5"/>
    <rect width="2.86956" height="14.4831" fill="black" fill-opacity="0" transform="translate(48.7823 37.6546)"/>
    <rect width="2.86956" height="14.4831" fill="black" fill-opacity="0" transform="translate(48.7823 37.6546)"/>
    <path d="M50.2171 37.6546C49.4248 37.6546 48.7823 38.3031 48.7823 39.1029V50.6894C48.7823 51.4893 49.4248 52.1378 50.2171 52.1378C51.0095 52.1378 51.6519 51.4893 51.6519 50.6894V39.1029C51.6519 38.3031 51.0095 37.6546 50.2171 37.6546Z" fill="#CBD7F5"/>
</svg>
