<svg width="73" height="76" viewBox="0 0 73 76" fill="none" xmlns="http://www.w3.org/2000/svg">
    <rect width="71.5" height="75.1193" fill="black" fill-opacity="0" transform="translate(0.8125 0.348625)"/>
    <path d="M69.9482 44.3483H68.8436V34.2225C68.8436 32.6195 68.0597 31.2002 66.8625 30.3378V28.9591C66.8625 26.9592 65.2639 25.3322 63.2989 25.3322H62.4741L65.6296 20.6196C66.6873 19.0401 66.2851 16.8791 64.7331 15.8025L43.3211 0.951743C42.5694 0.430163 41.6632 0.237669 40.7688 0.410356C39.8749 0.582749 39.1003 1.09905 38.588 1.86433L20.1068 29.4652H14.9639L16.2047 16.6818C16.2187 16.5377 16.3107 16.4128 16.439 16.3637C18.0375 15.7502 19.4229 14.6047 20.3397 13.1381C20.412 13.0226 20.5482 12.9566 20.6892 12.9711L28.7555 13.7822C29.3339 13.8393 29.8484 13.4105 29.9055 12.8222C29.9626 12.2339 29.5403 11.7099 28.9623 11.6518L20.8959 10.8408C19.9596 10.7475 19.0667 11.1866 18.565 11.9889C17.8909 13.0672 16.8723 13.9094 15.697 14.3604C14.8123 14.6999 14.2048 15.5086 14.1114 16.4712L12.8503 29.4651H11.5092L13.4715 9.24685C13.5421 8.51913 14.1803 7.98449 14.8962 8.05741L31.1967 9.69625C31.7748 9.75303 32.2896 9.32461 32.3467 8.73627C32.4038 8.14794 31.9815 7.62401 31.4034 7.56591L15.1029 5.92708C13.234 5.73942 11.5628 7.13397 11.3781 9.03631L9.79644 25.3322H7.10284C5.13797 25.3322 3.53925 26.9592 3.53925 28.9591V29.8995C1.93174 30.6528 0.8125 32.3066 0.8125 34.2225V70.7104C0.8125 73.3337 2.90942 75.4679 5.48712 75.4679H64.1692C66.7467 75.4679 68.8436 73.3337 68.8436 70.7104V60.5849H69.9482C71.2519 60.5849 72.3125 59.5055 72.3125 58.1787V46.7546C72.3126 45.4277 71.2519 44.3483 69.9482 44.3483ZM63.2989 27.4731C64.1041 27.473 64.759 28.1396 64.759 28.9592V29.5046C64.5656 29.4796 64.3691 29.4654 64.1692 29.4654H59.7067L61.0406 27.4731H63.2989ZM40.3261 3.06976C40.5222 2.77705 40.8184 2.57957 41.1604 2.51355C41.2421 2.49785 41.3241 2.48993 41.4056 2.48993C41.6646 2.48993 41.9178 2.56886 42.1366 2.72057L63.5485 17.5713C64.1422 17.9831 64.2962 18.8097 63.8916 19.4139L57.1615 29.4649H55.5463L58.846 24.5371C59.3811 23.738 59.4252 22.7209 58.9607 21.8827C58.3434 20.7692 58.0932 19.4579 58.2561 18.1904C58.3772 17.2475 57.9695 16.327 57.1922 15.788L46.0923 8.0894C45.3148 7.55021 44.3239 7.50077 43.506 7.96043C42.4067 8.57811 41.1161 8.82064 39.872 8.6434C38.9494 8.51165 38.0137 8.93566 37.4865 9.7228L24.2673 29.4651H22.6522L40.3261 3.06976ZM40.7893 21.2467C36.2092 21.2467 32.4496 24.8813 32.1433 29.4651H26.8124L39.2243 10.9284C39.2245 10.9284 39.2245 10.9284 39.2245 10.9284C39.2949 10.8229 39.4119 10.7601 39.5319 10.7601C39.5479 10.7601 39.5639 10.7613 39.5799 10.7635C41.2721 11.0044 43.0272 10.6749 44.5224 9.8346C44.64 9.76828 44.7911 9.77782 44.9076 9.85852L56.0076 17.5572C56.1238 17.6379 56.1877 17.7776 56.1704 17.9132C55.9488 19.6369 56.2893 21.4201 57.1288 22.9346C57.1961 23.0562 57.1879 23.212 57.108 23.3316L53.0012 29.4649H49.4358C49.1291 24.8813 45.3696 21.2467 40.7893 21.2467ZM47.3266 29.4652H34.2522C34.5534 26.063 37.3694 23.3876 40.7893 23.3876C44.2093 23.3875 47.0254 26.063 47.3266 29.4652ZM5.64266 28.9591C5.64266 28.1395 6.29757 27.4728 7.10284 27.4728H9.58871L9.39539 29.4651H5.64266V28.9591ZM2.91591 34.2225C2.91591 32.7797 4.06932 31.6058 5.48712 31.6058H64.1692C65.5869 31.6058 66.7402 32.7797 66.7402 34.2225V37.1927H2.91591V34.2225ZM66.7402 70.7104C66.7402 72.1533 65.5869 73.3271 64.1692 73.3271H5.48712C4.06932 73.3271 2.91591 72.1533 2.91591 70.7104V67.7403H8.58738C9.16834 67.7403 9.63902 67.2611 9.63902 66.67C9.63902 66.0789 9.1682 65.5997 8.58738 65.5997H2.91591V39.3335H66.7402V44.3483H56.7405H56.7404C53.5897 44.3483 50.8605 46.2174 49.5652 48.923C49.5609 48.9321 49.556 48.9409 49.5515 48.95C49.5406 48.9731 49.531 48.997 49.5204 49.0202C49.3661 49.3537 49.2321 49.6989 49.1229 50.0551C49.1226 50.0561 49.1224 50.057 49.1221 50.0581C48.8892 50.8194 48.7637 51.6282 48.7637 52.4666C48.7637 56.9431 52.342 60.5849 56.7402 60.5849H56.7404H66.7401V65.5997H15.3216C14.7406 65.5997 14.27 66.0789 14.27 66.67C14.27 67.2611 14.7408 67.7403 15.3216 67.7403H66.7402V70.7104ZM70.2092 58.1786C70.2092 58.325 70.0922 58.4441 69.9482 58.4441H56.7407C54.5142 58.4441 52.5729 57.1766 51.5772 55.3135C51.532 55.2288 51.4887 55.1428 51.4473 55.0558C51.3647 54.8817 51.2902 54.7028 51.2243 54.5197C50.9934 53.8792 50.8674 53.1875 50.8674 52.4666C50.8674 51.7456 50.9935 51.054 51.2243 50.4134C51.2903 50.2304 51.3649 50.0516 51.4473 49.8773C51.4887 49.7903 51.532 49.7043 51.5772 49.6197C52.5729 47.7565 54.5142 46.489 56.7407 46.489H69.9482C70.092 46.489 70.2092 46.6081 70.2092 46.7546V58.1786Z" fill="#CBD7F5"/>
</svg>
