<svg width="84" height="80" viewBox="0 0 84 80" fill="none" xmlns="http://www.w3.org/2000/svg">
    <rect width="84" height="80" fill="black" fill-opacity="0"/>
    <rect width="50.1983" height="43.7812" fill="black" fill-opacity="0" transform="translate(33.8018 36.2188)"/>
    <rect width="50.1983" height="43.7812" fill="black" fill-opacity="0" transform="translate(33.8018 36.2188)"/>
    <path d="M83.6138 42.1174L79.173 36.8067C78.5892 36.1083 77.5542 36.0197 76.8612 36.6078L71.5916 41.0834C70.8988 41.6718 70.8104 42.715 71.3944 43.4132C71.9783 44.1117 73.0134 44.2004 73.7062 43.6122L75.8231 41.8142C74.9408 61.1972 59.0192 76.693 39.5723 76.693C38.2528 76.693 36.9229 76.6209 35.6192 76.4787C34.7218 76.3814 33.9092 77.0367 33.8114 77.9444C33.714 78.8524 34.3651 79.668 35.266 79.7664C36.6863 79.9215 38.1351 80 39.5721 80C50.1424 80 60.0798 75.8517 67.5542 68.3189C74.6183 61.1995 78.6806 51.8623 79.1054 41.8575L81.1048 44.2484C81.4293 44.6365 81.8931 44.8364 82.36 44.8364C82.7333 44.8364 83.1087 44.7087 83.4164 44.4471C84.1094 43.8587 84.1979 42.8157 83.6138 42.1174Z" fill="#CBD7F5"/>
    <rect width="58.6892" height="26.3206" fill="black" fill-opacity="0" transform="translate(17.2298)"/>
    <rect width="58.6892" height="26.3206" fill="black" fill-opacity="0" transform="translate(17.2298)"/>
    <path d="M75.7783 23.9978C69.442 9.56323 55.2303 0.236643 39.5724 0.236643C33.4503 0.236643 27.4185 1.66572 21.9777 4.38762L22.7568 2.21598C23.0649 1.35718 22.6238 0.409428 21.7718 0.0989111C20.9195 -0.211441 19.9791 0.23284 19.671 1.09164L17.328 7.62291C17.0199 8.48171 17.461 9.42947 18.313 9.73998L24.7937 12.1014C24.9779 12.1686 25.1663 12.2005 25.3513 12.2005C26.0228 12.2005 26.653 11.7818 26.8943 11.1087C27.2024 10.2501 26.7613 9.30215 25.9093 8.99164L22.5967 7.78462C27.8004 5.00683 33.6394 3.54353 39.5723 3.54353C53.9322 3.54353 66.9662 12.0975 72.7777 25.3356C73.0488 25.9532 73.6494 26.3206 74.2789 26.3206C74.5006 26.3206 74.726 26.2751 74.9417 26.1789C75.7704 25.8095 76.145 24.833 75.7783 23.9978Z" fill="#CBD7F5"/>
    <rect width="22.761" height="60.9081" fill="black" fill-opacity="0" transform="translate(0 15.8803)"/>
    <rect width="22.761" height="60.9081" fill="black" fill-opacity="0" transform="translate(0 15.8803)"/>
    <path d="M22.7352 73.6235L21.5237 66.7865C21.3644 65.8875 20.5133 65.2894 19.6201 65.4493C18.7281 65.6099 18.134 66.4687 18.2933 67.3677L18.7765 70.0947C9.14715 63.2891 3.28126 52.0758 3.28126 40.1182C3.28126 32.2819 5.70413 24.8103 10.2876 18.5117C10.8235 17.7752 10.6656 16.7405 9.93498 16.2005C9.20458 15.6605 8.17754 15.8197 7.64171 16.556C2.64239 23.4259 0 31.5736 0 40.1182C0 47.2482 1.89 54.2456 5.46526 60.3539C8.39443 65.3579 12.3877 69.6626 17.117 72.9547L14.0475 73.5069C13.1555 73.6675 12.5615 74.5263 12.7208 75.4252C12.8627 76.226 13.5542 76.7885 14.334 76.7883C14.4296 76.7883 14.5268 76.7799 14.6244 76.7624L21.4084 75.5418C22.3004 75.3813 22.8945 74.5225 22.7352 73.6235Z" fill="#CBD7F5"/>
    <rect width="49.2188" height="49.6034" fill="black" fill-opacity="0" transform="translate(15.2275 15.1983)"/>
    <rect width="49.2188" height="49.6034" fill="black" fill-opacity="0" transform="translate(15.2275 15.1983)"/>
    <path d="M39.8369 15.1983C26.2673 15.1983 15.2275 26.3244 15.2275 40C15.2275 53.6757 26.2673 64.8017 39.8369 64.8017C53.4065 64.8017 64.4463 53.6757 64.4463 40C64.4463 26.3244 53.4065 15.1983 39.8369 15.1983ZM39.8369 61.4948C28.0764 61.4948 18.5087 51.8522 18.5087 40C18.5087 28.1478 28.0764 18.5052 39.8369 18.5052C51.5974 18.5052 61.1651 28.1478 61.1651 40C61.1651 51.8522 51.5974 61.4948 39.8369 61.4948Z" fill="#CBD7F5"/>
    <rect width="16.4063" height="36.3758" fill="black" fill-opacity="0" transform="translate(31.6337 21.8121)"/>
    <rect width="16.4063" height="36.3758" fill="black" fill-opacity="0" transform="translate(31.6337 21.8121)"/>
    <path d="M39.8369 38.3466C37.1229 38.3466 34.915 36.1214 34.915 33.3862C34.915 31.2308 36.2867 29.3928 38.1962 28.7103V33.3862C38.1962 34.2994 38.9309 35.0397 39.8369 35.0397C40.7428 35.0397 41.4775 34.2994 41.4775 33.3862V28.7103C43.387 29.3928 44.7587 31.2307 44.7587 33.3862C44.7587 34.2994 45.4934 35.0397 46.3994 35.0397C47.3053 35.0397 48.04 34.2994 48.04 33.3862C48.04 29.3938 45.2173 26.0536 41.4775 25.2854V23.4656C41.4775 22.5524 40.7428 21.8121 39.8369 21.8121C38.9309 21.8121 38.1962 22.5524 38.1962 23.4656V25.2854C34.4564 26.0536 31.6337 29.3937 31.6337 33.3862C31.6337 37.9448 35.3137 41.6535 39.8369 41.6535C42.5508 41.6535 44.7587 43.8787 44.7587 46.6138C44.7587 48.7692 43.387 50.6072 41.4775 51.2898V46.6138C41.4775 45.7006 40.7428 44.9604 39.8369 44.9604C38.9309 44.9604 38.1962 45.7006 38.1962 46.6138V51.2898C36.2867 50.6072 34.915 48.7694 34.915 46.6138C34.915 45.7006 34.1803 44.9604 33.2744 44.9604C32.3684 44.9604 31.6337 45.7006 31.6337 46.6138C31.6337 50.6062 34.4564 53.9465 38.1962 54.7147V56.5345C38.1962 57.4477 38.9309 58.1879 39.8369 58.1879C40.7428 58.1879 41.4775 57.4477 41.4775 56.5345V54.7147C45.2173 53.9465 48.04 50.6064 48.04 46.6138C48.04 42.0553 44.3601 38.3466 39.8369 38.3466Z" fill="#CBD7F5"/>
    <rect width="7.38278" height="19.4015" fill="black" fill-opacity="0" transform="translate(50.5016 27.4107)"/>
    <rect width="7.38278" height="19.4015" fill="black" fill-opacity="0" transform="translate(50.5016 27.4107)"/>
    <path d="M53.371 27.9712C53.0609 27.6157 52.6114 27.4107 52.1405 27.4107C51.7419 27.4107 51.3565 27.5578 51.0562 27.8257C50.7281 28.1183 50.5312 28.5218 50.505 28.9616C50.4771 29.4031 50.6215 29.828 50.9117 30.1587C53.2906 32.8786 54.6015 36.374 54.6031 40C54.6031 41.5873 54.3554 43.1498 53.8698 44.6412C53.7336 45.0612 53.7664 45.5093 53.9649 45.9045C54.1618 46.298 54.4998 46.5906 54.9165 46.7279C55.084 46.7841 55.2561 46.8122 55.4283 46.8122C56.1387 46.8122 56.7655 46.3542 56.9869 45.673C57.5825 43.8476 57.8844 41.9395 57.8844 40C57.8844 35.5638 56.2831 31.293 53.371 27.9712Z" fill="#CBD7F5"/>
    <rect width="3.27981" height="3.30689" fill="black" fill-opacity="0" transform="translate(50.5617 49.2114)"/>
    <rect width="3.27981" height="3.30689" fill="black" fill-opacity="0" transform="translate(50.5617 49.2114)"/>
    <path d="M53.2809 49.6198C52.9823 49.3569 52.5984 49.2114 52.203 49.2114C51.7289 49.2114 51.2793 49.418 50.9678 49.7768C50.966 49.7768 50.966 49.7785 50.966 49.7785C50.3704 50.4647 50.4411 51.5113 51.1235 52.1115C51.4221 52.3744 51.8043 52.5183 52.2014 52.5183C52.6755 52.5183 53.1267 52.3132 53.4384 51.9528C54.0323 51.2666 53.9618 50.22 53.2809 49.6198Z" fill="#CBD7F5"/>
    <rect width="3.28075" height="3.30689" fill="black" fill-opacity="0" transform="translate(25.8308 27.4801)"/>
    <rect width="3.28075" height="3.30689" fill="black" fill-opacity="0" transform="translate(25.8308 27.4801)"/>
    <path d="M28.5497 27.8885C28.2513 27.6256 27.869 27.4801 27.472 27.4801C26.9977 27.4801 26.5465 27.6868 26.235 28.0473C26.235 28.0473 26.235 28.0473 26.235 28.0489C25.9461 28.3813 25.8051 28.8062 25.8347 29.246C25.864 29.6875 26.0625 30.0893 26.3925 30.3803C26.6909 30.6432 27.075 30.787 27.4702 30.787H27.472C27.9461 30.787 28.3957 30.582 28.7072 30.2215C29.3028 29.5354 29.2322 28.4887 28.5497 27.8885Z" fill="#CBD7F5"/>
    <rect width="7.38129" height="19.4015" fill="black" fill-opacity="0" transform="translate(21.7906 33.1878)"/>
    <rect width="7.38129" height="19.4015" fill="black" fill-opacity="0" transform="translate(21.7906 33.1878)"/>
    <path d="M28.7617 49.8413C26.3828 47.1214 25.0717 43.626 25.0703 40C25.0719 38.4127 25.318 36.8502 25.8038 35.3572C26.086 34.4924 25.6166 33.5549 24.7569 33.2705C24.5896 33.2159 24.4189 33.1878 24.2452 33.1878C23.5348 33.1878 22.9081 33.6458 22.6866 34.3271C22.0909 36.1525 21.789 38.0622 21.7907 40C21.789 44.4362 23.3921 48.7087 26.3024 52.0288C26.6126 52.3843 27.0622 52.5894 27.5329 52.5894C27.9332 52.5894 28.3171 52.4422 28.6173 52.1743C29.2965 51.5708 29.3605 50.5242 28.7617 49.8413Z" fill="#CBD7F5"/>
</svg>
