<svg width="17" height="20" viewBox="0 0 17 20" fill="none" xmlns="http://www.w3.org/2000/svg">
    <rect width="17" height="20" fill="black" fill-opacity="0"/>
    <path d="M16.66 11.6667H14.28V0.333333C14.28 0.14925 14.1277 0 13.94 0H3.06003C2.87226 0 2.72003 0.14925 2.72003 0.333333V11.6667H0.340039C0.247347 11.6667 0.15865 11.7037 0.0945175 11.7694C-0.0354044 11.9023 -0.0308143 12.1133 0.10476 12.2407L8.26472 19.9073C8.32804 19.9668 8.41232 20 8.5 20C8.58768 20 8.672 19.9668 8.73528 19.9073L16.8952 12.2407C16.9622 12.1778 17 12.0908 17 12C17 11.8159 16.8477 11.6667 16.66 11.6667ZM8.5 19.205L1.18595 12.3333H3.06003C3.24779 12.3333 3.40002 12.1841 3.40002 12V0.666667H13.6V12C13.6 12.1841 13.7522 12.3333 13.94 12.3333H15.814L8.5 19.205Z" fill="white"/>
    <path d="M8.49995 5.00002C9.25105 5.00002 9.85994 5.59698 9.85994 6.33335H10.5399C10.5381 5.35848 9.82025 4.52665 8.83995 4.36335V3.66669H8.15995V4.36335C7.0502 4.55385 6.30802 5.59027 6.50233 6.67831C6.67246 7.63094 7.51349 8.32777 8.49995 8.33335C9.25105 8.33335 9.85994 8.93031 9.85994 9.66669C9.85994 10.4031 9.25105 11 8.49995 11C7.74885 11 7.13996 10.4031 7.13996 9.66669H6.45996C6.46179 10.6416 7.17965 11.4734 8.15995 11.6367V12.3334H8.83995V11.6367C9.9497 11.4462 10.6919 10.4098 10.4976 9.32173C10.3274 8.3691 9.48641 7.67227 8.49995 7.66669C7.74885 7.66669 7.13996 7.06973 7.13996 6.33335C7.13996 5.59698 7.74885 5.00002 8.49995 5.00002Z" fill="white"/>
    <path d="M4.76007 1.33331H4.08008V1.99998H4.76007V1.33331Z" fill="white"/>
    <path d="M6.12018 1.33331H5.44019V1.99998H6.12018V1.33331Z" fill="white"/>
    <path d="M7.47992 1.33331H6.79993V1.99998H7.47992V1.33331Z" fill="white"/>
    <path d="M8.84003 1.33331H8.16003V1.99998H8.84003V1.33331Z" fill="white"/>
    <path d="M10.1998 1.33331H9.51978V1.99998H10.1998V1.33331Z" fill="white"/>
    <path d="M11.56 1.33331H10.88V1.99998H11.56V1.33331Z" fill="white"/>
    <path d="M12.9201 1.33331H12.2401V1.99998H12.9201V1.33331Z" fill="white"/>
</svg>
