<svg width="53" height="58" viewBox="0 0 53 58" fill="none" xmlns="http://www.w3.org/2000/svg">
    <rect width="53" height="58" fill="black" fill-opacity="0"/>
    <rect width="53" height="17.0655" fill="black" fill-opacity="0" transform="translate(0 40.9344)"/>
    <rect width="53" height="17.0655" fill="black" fill-opacity="0" transform="translate(0 40.9344)"/>
    <path d="M44.8153 40.9344H37.9987C36.59 40.9335 35.2051 41.2989 33.9793 41.995C32.936 42.5881 32.0335 43.4012 31.3342 44.378C30.8684 44.2965 30.3964 44.2558 29.9235 44.2561H23.1008C22.6279 44.2557 22.1559 44.2965 21.6901 44.378C20.991 43.401 20.0884 42.588 19.045 41.995C17.8192 41.2989 16.4343 40.9335 15.0256 40.9344H8.20904C3.67947 40.9445 0.0100333 44.6224 0 49.1625V53.8007C0.00334442 54.2864 0.397075 54.6783 0.881712 54.6783H14.8675V57.1162C14.8675 57.6043 15.2623 58 15.7492 58H37.2508C37.7377 58 38.1325 57.6043 38.1325 57.1162V54.6783H52.1183C52.6052 54.6783 53 54.2826 53 53.7946V49.1625C52.99 44.6319 49.3353 40.9579 44.8153 40.9344ZM14.9587 51.6918V51.8808C14.9587 51.9661 14.9587 52.0453 14.9587 52.1307V52.4842V52.9108H1.76342V49.1625C1.77346 45.5985 4.65331 42.712 8.20904 42.702H15.0256C16.1294 42.7007 17.2147 42.9863 18.1754 43.5309C18.8195 43.8959 19.3974 44.368 19.8841 44.9266C17.1403 46.1202 15.2559 48.7087 14.9587 51.6918ZM36.3508 52.4842V56.2386H16.6552V52.4171C16.6552 52.3481 16.6552 52.2811 16.6552 52.216C16.6552 52.1104 16.6552 52.0047 16.6552 51.8991V51.7406C16.6552 51.6797 16.6552 51.6187 16.6552 51.5578V51.3627V51.3018V51.2347V51.1006L16.6917 50.9544L16.7525 50.735L16.7951 50.5887C17.6686 47.9351 20.1368 46.1385 22.9245 46.1273L23.1008 46.0297H29.9235C33.161 46.0416 35.8914 48.4501 36.3144 51.6675C36.3144 51.8015 36.3144 51.9356 36.3508 52.0697C36.3508 52.2079 36.3508 52.346 36.3508 52.4842ZM51.2609 52.9169H38.1264V52.3867C38.1264 52.3196 38.1264 52.2526 38.1264 52.1855C38.1264 52.1165 38.1264 52.0473 38.1264 51.9783C38.1264 51.8808 38.1264 51.7772 38.1264 51.6797V51.5882V51.4846V51.2957V51.2652V51.1921V51.125V51.0824V51.0031V50.9178V50.8751V50.8203V50.7654V50.7106V50.5765V50.5155V50.4363V50.3571L38.0839 50.2047V50.1438V50.0889V50.0462V49.9853V49.9061L37.9987 49.6684C37.2064 47.5573 35.5905 45.8606 33.5233 44.9692C33.889 44.4265 34.3339 43.9416 34.8428 43.5309C35.8036 42.9863 36.8888 42.7007 37.9927 42.702H44.8153C48.3709 42.712 51.2509 45.5985 51.2609 49.1625V52.9169Z" fill="#CBD7F5"/>
    <rect width="1.99449" height="1.99911" fill="black" fill-opacity="0" transform="translate(25.5515 10.8625)"/>
    <rect width="1.99449" height="1.99911" fill="black" fill-opacity="0" transform="translate(25.5515 10.8625)"/>
    <path d="M26.5487 12.8616C27.0995 12.8616 27.5459 12.4141 27.5459 11.8621C27.5459 11.31 27.0995 10.8625 26.5487 10.8625C25.9979 10.8625 25.5515 11.31 25.5515 11.8621C25.5515 12.4141 25.9979 12.8616 26.5487 12.8616Z" fill="#CBD7F5"/>
    <rect width="12.4169" height="12.4457" fill="black" fill-opacity="0" transform="translate(5.40039 26.9955)"/>
    <rect width="12.4169" height="12.4457" fill="black" fill-opacity="0" transform="translate(5.40039 26.9955)"/>
    <path d="M16.0047 28.824C14.8428 27.6526 13.2624 26.9943 11.6143 26.9955C8.18554 26.9925 5.40343 29.776 5.40039 33.2129C5.39735 36.6496 8.17444 39.4382 11.6034 39.4412C15.0323 39.4443 17.8143 36.6607 17.8173 33.2239C17.8187 31.5744 17.1668 29.9919 16.0047 28.824ZM14.7581 36.3633C13.0225 38.1035 10.2082 38.1042 8.47179 36.3645C6.73558 34.6249 6.73497 31.8041 8.47057 30.0637C10.2062 28.3235 13.0205 28.3229 14.7569 30.0625C15.5906 30.8978 16.0591 32.0308 16.0594 33.2123C16.061 34.3944 15.5928 35.5283 14.7581 36.3633Z" fill="#CBD7F5"/>
    <rect width="1.99449" height="1.99911" fill="black" fill-opacity="0" transform="translate(31.9969 10.8625)"/>
    <rect width="1.99449" height="1.99911" fill="black" fill-opacity="0" transform="translate(31.9969 10.8625)"/>
    <path d="M32.9942 12.8616C33.545 12.8616 33.9914 12.4141 33.9914 11.8621C33.9914 11.31 33.545 10.8625 32.9942 10.8625C32.4434 10.8625 31.9969 11.31 31.9969 11.8621C31.9969 12.4141 32.4434 12.8616 32.9942 12.8616Z" fill="#CBD7F5"/>
    <rect width="29.589" height="26.2438" fill="black" fill-opacity="0" transform="translate(11.7178)"/>
    <rect width="29.589" height="26.2438" fill="black" fill-opacity="0" transform="translate(11.7178)"/>
    <path d="M36.8983 3.46339C33.9239 1.17051 30.2645 -0.0492181 26.5124 0.00152139C22.7602 -0.0492181 19.101 1.17051 16.1264 3.46339C13.4022 5.64534 11.7178 8.68057 11.7178 12.0388C11.7212 13.7445 12.1541 15.4216 12.9766 16.9147C13.7591 18.3252 14.8108 19.5678 16.0717 20.5716L15.3724 25.2341C15.2996 25.7134 15.6282 26.1609 16.1063 26.2339C16.3044 26.264 16.5067 26.2253 16.6797 26.124L21.4349 23.3448C22.1885 23.5693 22.9565 23.7424 23.7334 23.8628C24.655 24.0051 25.5861 24.0764 26.5184 24.0761C30.2706 24.1269 33.93 22.9071 36.9044 20.6143C39.6225 18.4262 41.3069 15.3971 41.3069 12.0388C41.3069 8.68057 39.6225 5.64534 36.8983 3.46339ZM35.8038 19.249C33.1366 21.283 29.8633 22.3566 26.5124 22.2964C25.6717 22.2977 24.8321 22.2346 24.001 22.1075C23.1764 21.9839 22.3631 21.7944 21.5687 21.5407C21.3329 21.4662 21.0767 21.4948 20.8633 21.6199L17.3912 23.6739L17.8959 20.3217C17.9441 19.9943 17.8056 19.6673 17.5371 19.4745C16.29 18.5699 15.2527 17.4056 14.4967 16.0614C13.8206 14.8289 13.4651 13.4454 13.463 12.0388C13.463 9.2352 14.892 6.68756 17.2027 4.83473C19.8699 2.80073 23.1431 1.72712 26.4941 1.78731C29.8451 1.72712 33.1184 2.80073 35.7855 4.83473C38.0962 6.66318 39.5252 9.2352 39.5252 12.0388C39.5252 14.8425 38.1145 17.3901 35.8038 19.249Z" fill="#CBD7F5"/>
    <rect width="12.4169" height="12.4457" fill="black" fill-opacity="0" transform="translate(35.2009 26.9894)"/>
    <rect width="12.4169" height="12.4457" fill="black" fill-opacity="0" transform="translate(35.2009 26.9894)"/>
    <path d="M41.4149 26.9894C37.9861 26.9864 35.204 29.7699 35.2009 33.2068C35.1994 34.8562 35.8514 36.4389 37.0136 37.6066C38.1755 38.7781 39.7559 39.4363 41.4039 39.4351C44.8327 39.4381 47.6148 36.6546 47.6179 33.2178C47.6209 29.7809 44.8437 26.9925 41.4149 26.9894ZM44.5536 36.3607C42.818 38.1009 40.0037 38.1016 38.2673 36.3619C37.4336 35.5266 36.9651 34.3936 36.9648 33.2121C36.9631 32.03 37.4314 30.8961 38.2661 30.0611C40.0017 28.3209 42.816 28.3203 44.5524 30.0599C46.2886 31.7995 46.2892 34.6205 44.5536 36.3607Z" fill="#CBD7F5"/>
    <rect width="1.99449" height="1.99911" fill="black" fill-opacity="0" transform="translate(19.1056 10.8625)"/>
    <rect width="1.99449" height="1.99911" fill="black" fill-opacity="0" transform="translate(19.1056 10.8625)"/>
    <path d="M20.1028 12.8616C20.6536 12.8616 21.1001 12.4141 21.1001 11.8621C21.1001 11.31 20.6536 10.8625 20.1028 10.8625C19.5521 10.8625 19.1056 11.31 19.1056 11.8621C19.1056 12.4141 19.5521 12.8616 20.1028 12.8616Z" fill="#CBD7F5"/>
    <rect width="12.4048" height="12.4335" fill="black" fill-opacity="0" transform="translate(20.3126 30.3111)"/>
    <rect width="12.4048" height="12.4335" fill="black" fill-opacity="0" transform="translate(20.3126 30.3111)"/>
    <path d="M30.8932 32.1243C29.7299 30.9624 28.1543 30.3104 26.512 30.3111C24.864 30.3099 23.2836 30.9682 22.1217 32.1396C19.7037 34.5716 19.7105 38.5078 22.1369 40.9314C24.5633 43.355 28.4904 43.3481 30.9084 40.9161C33.3264 38.4842 33.3196 34.548 30.8932 32.1243ZM26.5108 40.9942C24.0558 40.9934 22.0663 38.9981 22.067 36.5376C22.0676 34.0771 24.0584 32.0829 26.5132 32.0835C27.692 32.0838 28.8224 32.5534 29.6558 33.389C30.4905 34.224 30.9587 35.358 30.957 36.5401C30.9563 39.0007 28.9656 40.9948 26.5108 40.9942Z" fill="#CBD7F5"/>
</svg>
