<svg width="60" height="51" viewBox="0 0 60 51" fill="none" xmlns="http://www.w3.org/2000/svg">
    <rect width="60" height="51" fill="black" fill-opacity="0"/>
    <rect width="4.76768" height="16.0172" fill="black" fill-opacity="0" transform="translate(13.4825 28.0896)"/>
    <rect width="4.76768" height="16.0172" fill="black" fill-opacity="0" transform="translate(13.4825 28.0896)"/>
    <path d="M18.2316 42.7179L15.8081 29.0627C15.6943 28.421 15.0855 27.9931 14.4482 28.1083C13.8111 28.2231 13.387 28.8365 13.501 29.4785L15.9246 43.1336C16.026 43.7052 16.5199 44.1067 17.0768 44.1067C17.1452 44.1067 17.2147 44.1006 17.2844 44.088C17.9216 43.9733 18.3457 43.3599 18.2316 42.7179Z" fill="#CBD7F5"/>
    <rect width="2.34375" height="11.4013" fill="black" fill-opacity="0" transform="translate(33.5394 32.7054)"/>
    <rect width="2.34375" height="11.4013" fill="black" fill-opacity="0" transform="translate(33.5394 32.7054)"/>
    <path d="M34.7112 32.7054C34.0641 32.7054 33.5394 33.234 33.5394 33.8861V42.9259C33.5394 43.578 34.0641 44.1067 34.7112 44.1067C35.3584 44.1067 35.8831 43.578 35.8831 42.9259V33.8861C35.8831 33.2341 35.3584 32.7054 34.7112 32.7054Z" fill="#CBD7F5"/>
    <rect width="2.34375" height="2.36153" fill="black" fill-opacity="0" transform="translate(33.539 28.0898)"/>
    <rect width="2.34375" height="2.36153" fill="black" fill-opacity="0" transform="translate(33.539 28.0898)"/>
    <path d="M35.5393 28.4357C35.3214 28.216 35.0191 28.0898 34.7109 28.0898C34.4026 28.0898 34.1003 28.216 33.8824 28.4357C33.6644 28.6555 33.539 28.96 33.539 29.2705C33.539 29.5811 33.6643 29.8857 33.8824 30.1052C34.1003 30.3248 34.4026 30.4513 34.7109 30.4513C35.0191 30.4513 35.3214 30.325 35.5393 30.1052C35.7572 29.8857 35.8828 29.5811 35.8828 29.2705C35.8828 28.96 35.7574 28.6554 35.5393 28.4357Z" fill="#CBD7F5"/>
    <rect width="2.34375" height="16.0167" fill="black" fill-opacity="0" transform="translate(24.1169 28.0899)"/>
    <rect width="2.34375" height="16.0167" fill="black" fill-opacity="0" transform="translate(24.1169 28.0899)"/>
    <path d="M25.2888 28.0899C24.6416 28.0899 24.1169 28.6186 24.1169 29.2707V42.9258C24.1169 43.5778 24.6416 44.1066 25.2888 44.1066C25.9359 44.1066 26.4606 43.5778 26.4606 42.9258V29.2707C26.4606 28.6185 25.9359 28.0899 25.2888 28.0899Z" fill="#CBD7F5"/>
    <rect width="4.76768" height="16.0172" fill="black" fill-opacity="0" transform="translate(41.7498 28.0896)"/>
    <rect width="4.76768" height="16.0172" fill="black" fill-opacity="0" transform="translate(41.7498 28.0896)"/>
    <path d="M45.5517 28.1084C44.9131 27.9929 44.3057 28.421 44.1919 29.0628L41.7683 42.718C41.6543 43.3601 42.0784 43.9735 42.7156 44.0882C42.7854 44.1007 42.8548 44.1068 42.9232 44.1068C43.4801 44.1068 43.974 43.7054 44.0754 43.1338L46.499 29.4786C46.613 28.8365 46.1889 28.2231 45.5517 28.1084Z" fill="#CBD7F5"/>
    <rect width="2.34375" height="2.36153" fill="black" fill-opacity="0" transform="translate(28.6017 48.6385)"/>
    <rect width="2.34375" height="2.36153" fill="black" fill-opacity="0" transform="translate(28.6017 48.6385)"/>
    <path d="M30.6021 48.9846C30.3843 48.7638 30.0819 48.6385 29.7736 48.6385C29.4654 48.6385 29.1631 48.7638 28.9452 48.9846C28.7273 49.2041 28.6017 49.5076 28.6017 49.8192C28.6017 50.1298 28.7271 50.4344 28.9452 50.654C29.1631 50.8737 29.4654 51 29.7736 51C30.0819 51 30.3843 50.8738 30.6021 50.654C30.8201 50.4344 30.9455 50.1298 30.9455 49.8192C30.9455 49.5087 30.8202 49.2041 30.6021 48.9846Z" fill="#CBD7F5"/>
    <rect width="60" height="38.2581" fill="black" fill-opacity="0" transform="translate(0 12.7416)"/>
    <rect width="60" height="38.2581" fill="black" fill-opacity="0" transform="translate(0 12.7416)"/>
    <path d="M56.4844 12.7416H53.7109C53.0638 12.7416 52.539 13.2704 52.539 13.9224C52.539 14.5744 53.0638 15.1031 53.7109 15.1031H56.4844C57.1305 15.1031 57.6562 15.6328 57.6562 16.2839V20.0623C57.6562 20.7134 57.1305 21.2431 56.4844 21.2431H3.51562C2.86945 21.2431 2.34375 20.7134 2.34375 20.0623V16.2839C2.34375 15.6328 2.86945 15.1031 3.51562 15.1031H5.8984C6.54551 15.1031 7.07027 14.5744 7.07027 13.9224C7.07027 13.2704 6.54551 12.7416 5.8984 12.7416H3.51562C1.57711 12.7416 0 14.3307 0 16.2839V20.0623C0 21.7566 1.18699 23.1761 2.7668 23.5229L6.96504 45.4277C7.58355 48.6564 10.4013 50.9998 13.665 50.9998H24.4922C25.1393 50.9998 25.6641 50.471 25.6641 49.819C25.6641 49.167 25.1393 48.6382 24.4922 48.6382H13.6649C11.5222 48.6382 9.6723 47.0998 9.26613 44.98L5.16984 23.6061H54.8302L50.7339 44.9801C50.3277 47.0998 48.4778 48.6382 46.3351 48.6382H34.7113C34.0642 48.6382 33.5394 49.167 33.5394 49.819C33.5394 50.471 34.0642 50.9998 34.7113 50.9998H46.3351C49.5988 50.9998 52.4166 48.6563 53.0351 45.4279L57.2332 23.5229C58.813 23.1761 60 21.7566 60 20.0623V16.2839C60 14.3307 58.4229 12.7416 56.4844 12.7416Z" fill="#CBD7F5"/>
    <rect width="40.9194" height="19.3539" fill="black" fill-opacity="0" transform="translate(9.54034)"/>
    <rect width="40.9194" height="19.3539" fill="black" fill-opacity="0" transform="translate(9.54034)"/>
    <path d="M49.3842 13.0269L37.531 1.08347C36.0968 -0.361313 33.763 -0.361077 32.3291 1.0837C30.8951 2.52872 30.8951 4.87998 32.3291 6.32523L38.6971 12.7416H21.303L27.6711 6.32511C29.1051 4.8801 29.1051 2.52884 27.6711 1.08359C26.2372 -0.361195 23.9037 -0.361077 22.4689 1.08359L10.6159 13.0269C9.18175 14.4719 9.18187 16.8232 10.616 18.2684C11.3108 18.9684 12.2344 19.3539 13.2169 19.3539C14.1994 19.3539 15.123 18.9684 15.818 18.2684L18.9593 15.1031H40.8566C40.9146 15.1031 40.9712 15.0975 41.027 15.0893L44.1823 18.2685C44.8772 18.9685 45.8008 19.3539 46.7832 19.3539C47.7656 19.3539 48.6894 18.9684 49.3841 18.2684C50.8182 16.8233 50.8184 14.472 49.3842 13.0269ZM14.1608 16.5983C13.9086 16.8524 13.5734 16.9924 13.2169 16.9924C12.8605 16.9924 12.5253 16.8524 12.2733 16.5985C11.753 16.0741 11.7528 15.221 12.2732 14.6967L24.1262 2.75366C24.3865 2.49141 24.7283 2.36035 25.0703 2.36035C25.412 2.36035 25.7537 2.49141 26.0139 2.75342C26.5342 3.2778 26.5342 4.13102 26.0139 4.65528L14.1608 16.5983ZM47.7269 16.5983C47.475 16.8523 47.1397 16.9922 46.7834 16.9922C46.4269 16.9922 46.0917 16.8523 45.8395 16.5983L33.9865 4.6554C33.466 4.13102 33.466 3.2778 33.9865 2.75354C34.2466 2.49141 34.5884 2.36035 34.9302 2.36035C35.2719 2.36035 35.6137 2.49141 35.874 2.75354L47.7271 14.6967C48.2474 15.2209 48.2473 16.0741 47.7269 16.5983Z" fill="#CBD7F5"/>
</svg>

