<svg width="73" height="73" viewBox="0 0 73 73" fill="none" xmlns="http://www.w3.org/2000/svg">
    <rect width="73" height="73" fill="black" fill-opacity="0"/>
    <rect width="2.85156" height="2.85156" fill="black" fill-opacity="0" transform="translate(0 31.7949)"/>
    <rect width="2.85156" height="2.85156" fill="black" fill-opacity="0" transform="translate(0 31.7949)"/>
    <path d="M2.43367 32.2127C2.16861 31.9475 1.80076 31.7949 1.42578 31.7949C1.0508 31.7949 0.682949 31.9475 0.417754 32.2127C0.152416 32.4779 0 32.8457 0 33.2207C0 33.5957 0.152416 33.9635 0.417754 34.2287C0.683092 34.4939 1.0508 34.6465 1.42578 34.6465C1.80076 34.6465 2.16861 34.4939 2.43367 34.2287C2.699 33.9635 2.85156 33.5957 2.85156 33.2207C2.85156 32.8457 2.699 32.4779 2.43367 32.2127Z" fill="#CBD7F5"/>
    <rect width="73" height="73" fill="black" fill-opacity="0"/>
    <rect width="73" height="73" fill="black" fill-opacity="0"/>
    <path d="M71.7035 17.3803L61.6177 3.02979C60.2845 1.13264 58.104 0 55.7853 0H42.2506H30.7494H17.2147C14.8958 0 12.7154 1.13264 11.3823 3.02979L1.29646 17.3801C0.448408 18.5869 0 20.0044 0 21.4794V27.0898C0 27.8773 0.638465 28.5156 1.42578 28.5156C2.2131 28.5156 2.85156 27.8773 2.85156 27.0898V21.4794C2.85156 21.3525 2.85869 21.2267 2.86953 21.1016H24.5234V36.5C24.5234 37.0093 24.795 37.4801 25.2362 37.7347C25.4569 37.862 25.703 37.9258 25.9492 37.9258C26.1953 37.9258 26.4414 37.8622 26.662 37.7349L36.5664 32.0182L46.3308 37.7306C46.7716 37.9885 47.317 37.9909 47.76 37.7367C48.2031 37.4825 48.4764 37.0107 48.4764 36.4999V21.1016H70.1303C70.1413 21.2267 70.1483 21.3526 70.1483 21.4794V65.8711C70.1483 68.2296 68.2295 70.1484 65.8709 70.1484H7.12891C4.77038 70.1484 2.85156 68.2296 2.85156 65.8711V38.7812C2.85156 37.9938 2.2131 37.3555 1.42578 37.3555C0.638465 37.3555 0 37.9938 0 38.7812V65.8711C0 69.802 3.19803 73 7.12891 73H65.8711C69.802 73 73 69.802 73 65.8711V21.4794C73 20.0044 72.5516 18.5869 71.7035 17.3803ZM31.8487 2.85156H41.1513L45.2014 18.25H27.7986L31.8487 2.85156ZM24.8499 18.25H4.17055L13.7153 4.66943C14.5152 3.53123 15.8235 2.85156 17.2147 2.85156H28.9002L24.8499 18.25ZM45.625 34.014L37.2913 29.1385C36.8489 28.8798 36.3021 28.8783 35.8585 29.1343L27.375 34.0308V21.1016H45.625V34.014ZM48.1501 18.25L44.0998 2.85156H55.7853C57.1765 2.85156 58.4847 3.53109 59.2847 4.66943L68.8294 18.25H48.1501Z" fill="#CBD7F5"/>
    <rect width="20.9078" height="22.2185" fill="black" fill-opacity="0" transform="translate(7.69922 43.011)"/>
    <rect width="20.9078" height="22.2185" fill="black" fill-opacity="0" transform="translate(7.69922 43.011)"/>
    <path d="M18.153 43.011C12.3888 43.011 7.69922 47.7007 7.69922 53.465V54.1044C7.69922 54.6857 8.0521 55.2087 8.5909 55.4264C9.12942 55.6438 9.74678 55.513 10.1506 55.0948C10.9902 54.2253 12.1146 53.7466 13.3168 53.7466C14.6472 53.7466 15.8935 54.3464 16.7273 55.3667V61.1703C16.7271 61.8363 16.1855 62.3779 15.5199 62.3779C14.8541 62.3779 14.3124 61.8363 14.3124 61.1705C14.3124 60.383 13.674 59.7447 12.8866 59.7447C12.0993 59.7447 11.4609 60.383 11.4609 61.1705C11.4609 63.4086 13.2817 65.2295 15.5199 65.2295C17.7581 65.2295 19.5788 63.4086 19.5788 61.1705V55.3668C20.4126 54.3465 21.659 53.7466 22.9894 53.7466C24.1917 53.7466 25.316 54.2253 26.1557 55.0948C26.5593 55.513 27.1765 55.644 27.7153 55.4264C28.2541 55.2087 28.607 54.6857 28.607 54.1044V53.465C28.607 47.7007 23.9173 43.011 18.153 43.011ZM22.9893 50.8951C21.1823 50.8951 19.4683 51.5647 18.1529 52.7411C16.8376 51.5647 15.1235 50.8951 13.3167 50.8951C12.4642 50.8951 11.6358 51.0407 10.8585 51.3206C11.7864 48.1693 14.7052 45.8627 18.153 45.8627C21.6007 45.8627 24.5196 48.1693 25.4475 51.3206C24.6702 51.0408 23.8416 50.8951 22.9893 50.8951Z" fill="#CBD7F5"/>
    <rect width="2.85" height="2.85156" fill="black" fill-opacity="0" transform="translate(53.1576 62.4492)"/>
    <rect width="2.85" height="2.85156" fill="black" fill-opacity="0" transform="translate(53.1576 62.4492)"/>
    <path d="M55.5913 62.867C55.3262 62.6018 54.9584 62.4492 54.5834 62.4492C54.2068 62.4492 53.8405 62.6018 53.5739 62.867C53.3087 63.1322 53.1576 63.5 53.1576 63.875C53.1576 64.25 53.3087 64.6178 53.5739 64.883C53.8405 65.1482 54.2068 65.3008 54.5834 65.3008C54.9584 65.3008 55.3246 65.1482 55.5913 64.883C55.8565 64.6178 56.0076 64.25 56.0076 63.875C56.0076 63.5 55.8565 63.1322 55.5913 62.867Z" fill="#CBD7F5"/>
    <rect width="14.8869" height="2.85156" fill="black" fill-opacity="0" transform="translate(35.0667 62.4492)"/>
    <rect width="14.8869" height="2.85156" fill="black" fill-opacity="0" transform="translate(35.0667 62.4492)"/>
    <path d="M48.5277 62.4492H36.4924C35.7051 62.4492 35.0667 63.0875 35.0667 63.875C35.0667 64.6625 35.7051 65.3008 36.4924 65.3008H48.5277C49.3151 65.3008 49.9535 64.6625 49.9535 63.875C49.9535 63.0875 49.3151 62.4492 48.5277 62.4492Z" fill="#CBD7F5"/>
    <rect width="30.2126" height="2.85156" fill="black" fill-opacity="0" transform="translate(35.0762 55.6055)"/>
    <rect width="30.2126" height="2.85156" fill="black" fill-opacity="0" transform="translate(35.0762 55.6055)"/>
    <path d="M63.863 55.6055H36.502C35.7146 55.6055 35.0762 56.2438 35.0762 57.0312C35.0762 57.8187 35.7146 58.457 36.502 58.457H63.863C64.6504 58.457 65.2888 57.8187 65.2888 57.0312C65.2888 56.2438 64.6503 55.6055 63.863 55.6055Z" fill="#CBD7F5"/>
    <rect width="30.2126" height="2.85156" fill="black" fill-opacity="0" transform="translate(35.0646 48.7617)"/>
    <rect width="30.2126" height="2.85156" fill="black" fill-opacity="0" transform="translate(35.0646 48.7617)"/>
    <path d="M63.8514 48.7617H36.4904C35.703 48.7617 35.0646 49.4 35.0646 50.1875C35.0646 50.975 35.703 51.6133 36.4904 51.6133H63.8514C64.6387 51.6133 65.2772 50.975 65.2772 50.1875C65.2772 49.4 64.6387 48.7617 63.8514 48.7617Z" fill="#CBD7F5"/>
</svg>
