<svg width="73" height="73" viewBox="0 0 73 73" fill="none" xmlns="http://www.w3.org/2000/svg">
    <rect width="73" height="73" fill="black" fill-opacity="0"/>
    <path d="M69.9462 32.85H65.7V25.2239C65.7 23.3916 64.2084 21.9 62.3761 21.9H58.4V18.963L57.7978 18.3607C57.7965 18.3607 57.7965 18.3595 57.7965 18.3583L48.9197 9.48148L39.437 0H9.73333V13.3833H3.32393C1.49163 13.3833 0 14.875 0 16.7073V69.8598H0.0073C0.00121667 70.5448 0.214133 71.2151 0.6424 71.776C1.23857 72.5547 2.14133 73 3.12075 73H57.5775C58.984 73 60.2226 72.0522 60.5584 70.7942L73 36.6813V36.4659C73 34.3708 71.7152 32.85 69.9462 32.85ZM62.3761 24.3333C62.8664 24.3333 63.2667 24.7324 63.2667 25.2239V32.85H58.4V24.3333H62.3761ZM40.15 4.15492L54.2463 18.25H40.15V4.15492ZM12.1667 2.43333H37.7167V20.6833H55.9667V21.9V32.85H15.4894C15.3154 32.85 15.1439 32.8646 14.976 32.8926C13.7909 33.0897 12.803 33.9535 12.5085 35.0558L12.1667 35.9951V13.3833V2.43333ZM2.43333 16.7073C2.43333 16.2157 2.83362 15.8167 3.32393 15.8167H9.73333V42.6259L2.43333 62.5354V16.7073ZM58.2406 70.0593C58.1603 70.3574 57.8878 70.5667 57.5775 70.5667H3.12075C2.8251 70.5667 2.65233 70.3976 2.57568 70.2966C2.49903 70.1968 2.38102 69.9851 2.42603 69.8002L9.73333 49.7592V49.7653L14.7947 35.8904L14.8263 35.7907C14.9066 35.4926 15.1804 35.2833 15.4894 35.2833H55.9667H58.4H65.7H69.9462C70.4085 35.2833 70.5265 35.9476 70.5569 36.2798L58.2406 70.0593Z" fill="#CBD7F5"/>
    <path d="M19.4667 20.6833H31.6333C32.3049 20.6833 32.85 20.1395 32.85 19.4667C32.85 18.7939 32.3049 18.25 31.6333 18.25H19.4667C18.7951 18.25 18.25 18.7939 18.25 19.4667C18.25 20.1395 18.7951 20.6833 19.4667 20.6833Z" fill="#CBD7F5"/>
    <path d="M19.4667 12.1667H31.6333C32.3049 12.1667 32.85 11.6228 32.85 10.95C32.85 10.2772 32.3049 9.73334 31.6333 9.73334H19.4667C18.7951 9.73334 18.25 10.2772 18.25 10.95C18.25 11.6228 18.7951 12.1667 19.4667 12.1667Z" fill="#CBD7F5"/>
    <path d="M19.4667 29.2H48.6667C49.3383 29.2 49.8833 28.6561 49.8833 27.9833C49.8833 27.3105 49.3383 26.7667 48.6667 26.7667H19.4667C18.7951 26.7667 18.25 27.3105 18.25 27.9833C18.25 28.6561 18.7951 29.2 19.4667 29.2Z" fill="#CBD7F5"/>
</svg>
