<svg width="19" height="19" viewBox="0 0 19 19" fill="none" xmlns="http://www.w3.org/2000/svg">
    <rect width="19" height="19" fill="black" fill-opacity="0"/>
    <path d="M18.9056 0.0928652C18.7796 -0.0309551 18.5761 -0.0309551 18.4502 0.0928652L17.2564 1.26678H9.75855L0.33266 10.6122C0.118186 10.8231 0 11.104 0 11.4023C0 11.7006 0.118186 11.9815 0.33266 12.1924L6.92338 18.6735C7.14461 18.8911 7.43476 19 7.72556 19C8.01764 19 8.30973 18.8901 8.53354 18.6703L17.7118 9.40092V1.71456L18.9056 0.540645C19.0315 0.416825 19.0315 0.216685 18.9056 0.0928652ZM17.0677 9.14378L8.07497 18.2257C7.88303 18.4145 7.57066 18.4145 7.37873 18.2257L0.788014 11.7446C0.596082 11.5559 0.596082 11.2487 0.78898 11.059L10.0271 1.90013H16.6124L15.056 3.43063C14.8013 3.26469 14.4969 3.16684 14.1694 3.16684C13.2816 3.16684 12.5593 3.87714 12.5593 4.75022C12.5593 5.62329 13.2816 6.3336 14.1694 6.3336C15.0573 6.3336 15.7796 5.62329 15.7796 4.75022C15.7796 4.42816 15.6801 4.1289 15.5113 3.87841L17.0677 2.34791V9.14378ZM15.1355 4.75022C15.1355 5.274 14.7021 5.70024 14.1694 5.70024C13.6368 5.70024 13.2033 5.274 13.2033 4.75022C13.2033 4.22644 13.6368 3.80019 14.1694 3.80019C14.3182 3.80019 14.4573 3.83629 14.5832 3.89551L13.9418 4.52633C13.8158 4.65015 13.8158 4.85029 13.9418 4.97411C14.0045 5.03586 14.087 5.06689 14.1694 5.06689C14.2519 5.06689 14.3343 5.03586 14.3971 4.97411L15.0386 4.34329C15.0991 4.46711 15.1355 4.60391 15.1355 4.75022Z" fill="white"/>
    <path d="M10.8043 12.5021L7.38814 15.8608C7.26222 15.9846 7.26222 16.1848 7.38814 16.3086C7.45093 16.3703 7.53337 16.4014 7.61581 16.4014C7.69825 16.4014 7.78069 16.3703 7.84349 16.3086L11.2593 12.9499C11.3852 12.8261 11.3852 12.626 11.2593 12.5021C11.1334 12.3783 10.9299 12.3783 10.8043 12.5021Z" fill="white"/>
    <path d="M11.9409 11.3811C11.8826 11.4413 11.8475 11.5236 11.8475 11.6059C11.8475 11.6886 11.8826 11.7709 11.9409 11.8308C12.0018 11.8881 12.0858 11.9226 12.1696 11.9226C12.2565 11.9226 12.3399 11.8881 12.3982 11.8308C12.4562 11.7709 12.4916 11.6917 12.4916 11.6059C12.4916 11.5204 12.4562 11.4384 12.3982 11.3811C12.2823 11.2639 12.0601 11.2639 11.9409 11.3811Z" fill="white"/>
    <path d="M9.2101 8.69503C9.33601 8.57121 9.33601 8.37107 9.2101 8.24725C9.08418 8.12343 8.88066 8.12343 8.75474 8.24725L5.33894 11.6062C5.21303 11.7301 5.21303 11.9302 5.33894 12.054C5.40174 12.1158 5.48418 12.1468 5.56662 12.1468C5.64906 12.1468 5.7315 12.1158 5.7943 12.054L9.2101 8.69503Z" fill="white"/>
    <path d="M8.07149 12.5021C8.13429 12.5639 8.21673 12.5949 8.29917 12.5949C8.38161 12.5949 8.46405 12.5639 8.52684 12.5021L10.8039 10.2629C10.9299 10.1391 10.9299 9.93894 10.8039 9.81512C10.678 9.6913 10.4745 9.6913 10.3486 9.81512L8.07149 12.0543C7.9459 12.1778 7.9459 12.3783 8.07149 12.5021Z" fill="white"/>
    <path d="M6.24962 13.8455L5.79427 14.2936C5.66835 14.4174 5.66835 14.6178 5.79427 14.7413C5.85706 14.8031 5.9395 14.8341 6.02194 14.8341C6.10438 14.8341 6.18682 14.8031 6.24962 14.7413L6.70497 14.2932C6.83089 14.1694 6.83089 13.969 6.70497 13.8455C6.57938 13.7216 6.37553 13.7216 6.24962 13.8455Z" fill="white"/>
    <path d="M6.47735 7.7995C6.35144 7.67568 6.14791 7.67568 6.022 7.7995L2.60652 11.1582C2.48061 11.282 2.48061 11.4821 2.60652 11.6059C2.66932 11.6677 2.75176 11.6987 2.8342 11.6987C2.91664 11.6987 2.99908 11.6677 3.06187 11.6059L6.47735 8.24728C6.60327 8.12346 6.60327 7.92332 6.47735 7.7995Z" fill="white"/>
    <path d="M7.3871 7.22027C7.47437 7.22027 7.55488 7.18544 7.61574 7.12844C7.67403 7.06827 7.70913 6.98593 7.70913 6.9036C7.70913 6.8181 7.67403 6.73576 7.61574 6.67876C7.49691 6.56159 7.27761 6.56159 7.162 6.67876C7.10081 6.73893 7.06506 6.8181 7.06506 6.9036C7.06506 6.98593 7.10049 7.06827 7.15845 7.12844C7.21996 7.18512 7.30369 7.22027 7.3871 7.22027Z" fill="white"/>
    <path d="M4.42798 12.5021C4.3668 12.5594 4.33459 12.6415 4.33459 12.727C4.33459 12.8096 4.3668 12.892 4.42798 12.9486C4.48885 13.0088 4.56936 13.0436 4.65663 13.0436C4.74036 13.0436 4.82408 13.0091 4.88527 12.9486C4.94324 12.8888 4.97866 12.8096 4.97866 12.727C4.97866 12.6415 4.94324 12.5623 4.88205 12.5021C4.7629 12.385 4.54714 12.385 4.42798 12.5021Z" fill="white"/>
    <path d="M7.61574 13.3986C7.67693 13.3388 7.70913 13.2561 7.70913 13.1738C7.70913 13.0915 7.67693 13.0091 7.61574 12.949C7.49691 12.8318 7.27761 12.8318 7.15845 12.949C7.10049 13.0091 7.06506 13.0915 7.06506 13.1738C7.06506 13.2561 7.10049 13.3388 7.15845 13.3986C7.21964 13.456 7.30337 13.4905 7.3871 13.4905C7.47437 13.4905 7.55488 13.4556 7.61574 13.3986Z" fill="white"/>
</svg>
