<svg width="31" height="34" viewBox="0 0 31 34" fill="none" xmlns="http://www.w3.org/2000/svg">
    <rect width="27.0003" height="29.8695" fill="white" fill-opacity="0" transform="translate(1.99951 2.80432)"/>
    <path fill-rule="evenodd" clip-rule="evenodd" d="M8.59521 7.97083L8.59424 14.6393C8.59424 19.5414 12.332 22.8231 15.9902 24.1791V28.7509C14.6294 29.4522 13.6494 30.7045 13.4058 32.1796C13.3618 32.444 13.5815 32.6738 13.8496 32.6738H23.3027C23.4976 32.6738 23.6562 32.5079 23.6304 32.3148C23.4297 30.8104 22.4653 29.5236 21.1055 28.7929V24.2371C24.812 22.9167 28.6606 19.6128 28.6606 14.6393V7.97223V5.25604C28.6606 3.90204 27.563 2.80438 26.209 2.80438H11.0469C9.69287 2.80438 8.59521 3.90204 8.59521 5.25604V7.97083Z" fill="#35ABD8" fill-opacity="0.1"/>
    <path d="M4.42139 9.14126C3.07305 9.20451 1.99928 10.3186 1.99928 11.6836C1.99928 13.0486 3.07305 14.1626 4.42139 14.2259" stroke="#F67676" stroke-width="3.77177" stroke-linecap="round" stroke-linejoin="round"/>
    <path d="M26.5781 9.14146C27.9262 9.20471 28.9998 10.3186 28.9998 11.6833C28.9998 13.0481 27.9262 14.162 26.5781 14.2252" stroke="#F67676" stroke-width="3.77177" stroke-linecap="round" stroke-linejoin="round"/>
    <path d="M5.40137 14.6392L3.51548 14.6389V14.6392H5.40137ZM5.40234 7.97076L7.28823 7.97104V7.97076H5.40234ZM12.7974 24.1791H14.6833C14.6833 23.3903 14.1924 22.6849 13.4529 22.4108L12.7974 24.1791ZM12.7974 28.7357L13.6553 30.4151C14.2862 30.0928 14.6833 29.4441 14.6833 28.7357H12.7974ZM10.6079 31.7688L8.7252 31.6594C8.69508 32.1777 8.87996 32.6855 9.23625 33.0631C9.59255 33.4407 10.0887 33.6547 10.6079 33.6547V31.7688ZM20.021 31.7688V33.6547C20.5402 33.6547 21.0364 33.4406 21.3927 33.063C21.749 32.6853 21.9339 32.1775 21.9037 31.6592L20.021 31.7688ZM17.9126 28.778H16.0267C16.0267 29.4739 16.41 30.1133 17.0239 30.4413L17.9126 28.778ZM17.9126 24.2371L17.2797 22.4605C16.5284 22.7282 16.0267 23.4395 16.0267 24.2371H17.9126ZM7.28725 14.6395L7.28823 7.97104L3.51646 7.97049L3.51548 14.6389L7.28725 14.6395ZM13.4529 22.4108C10.2033 21.2062 7.28725 18.4503 7.28725 14.6392H3.51548C3.51548 20.6325 8.075 24.4398 12.1419 25.9474L13.4529 22.4108ZM14.6833 28.7357V24.1791H10.9115V28.7357H14.6833ZM12.4906 31.8782C12.5172 31.4211 12.8422 30.8305 13.6553 30.4151L11.9394 27.0562C10.233 27.9279 8.84708 29.562 8.7252 31.6594L12.4906 31.8782ZM12.7974 29.8829H10.6079V33.6547H12.7974V29.8829ZM17.9126 29.8829H12.7974V33.6547H17.9126V29.8829ZM20.021 29.8829H17.9126V33.6547H20.021V29.8829ZM17.0239 30.4413C17.8014 30.8567 18.1122 31.4301 18.1383 31.8784L21.9037 31.6592C21.7843 29.6083 20.4544 27.9979 18.8013 27.1146L17.0239 30.4413ZM16.0267 24.2371V28.778H19.7985V24.2371H16.0267ZM23.5819 14.6392C23.5819 18.5049 20.5765 21.2861 17.2797 22.4605L18.5454 26.0136C22.6618 24.5473 27.3537 20.7206 27.3537 14.6392H23.5819ZM23.5819 7.97217V14.6392H27.3537V7.97217H23.5819ZM23.5819 5.25598V7.97217H27.3537V5.25598H23.5819ZM23.0161 4.69021C23.3286 4.69021 23.5819 4.94352 23.5819 5.25598H27.3537C27.3537 2.86043 25.4117 0.918435 23.0161 0.918435V4.69021ZM7.854 4.69021H23.0161V0.918435H7.854V4.69021ZM7.28823 5.25598C7.28823 4.94352 7.54155 4.69021 7.854 4.69021V0.918435C5.45845 0.918435 3.51646 2.86043 3.51646 5.25598H7.28823ZM7.28823 7.97076V5.25598H3.51646V7.97076H7.28823Z" fill="#6A8BE2"/>
</svg>
