<svg width="27" height="42" viewBox="0 0 27 42" fill="none" xmlns="http://www.w3.org/2000/svg">
    <rect width="24.9998" height="38.0898" fill="black" fill-opacity="0" transform="translate(2.00049 2.56281)"/>
    <path fill-rule="evenodd" clip-rule="evenodd" d="M15.3584 40.6526C14.2373 40.6526 13.2588 39.8921 12.9824 38.8056L11.2183 31.8739L8.99268 23.9654C7.65674 16.5616 9.58692 9.66899 14.4087 3.94371L14.8291 3.44102C15.8091 2.27007 17.6099 2.27007 18.5898 3.44102L19.0103 3.94371C23.7598 9.66899 25.7622 16.5614 24.4263 23.9654L23.148 28.5075L25.5874 29.6483C26.4497 30.0515 27.0005 30.9173 27.0005 31.8691V35.1331C27.0005 36.9277 25.1357 38.1141 23.5103 37.3539L21.0659 36.2107L20.3823 38.8218C20.0996 39.9004 19.1255 40.6526 18.0103 40.6526H15.3584Z" fill="#35ABD8" fill-opacity="0.1"/>
    <path d="M17.7896 36.5388L23.0527 38.697V30.2733L19.3685 28.4458" stroke="#F67676" stroke-width="3.77177" stroke-linecap="round" stroke-linejoin="round"/>
    <path d="M7.26367 36.5388L2.0005 38.697V30.2733L5.68472 28.4458" stroke="#F67676" stroke-width="3.77177" stroke-linecap="round" stroke-linejoin="round"/>
    <path fill-rule="evenodd" clip-rule="evenodd" d="M9.37399 39.4613L9.44713 39.8877H15.5629L15.6361 39.4613L17.8669 31.3088L20.0274 23.9645C21.3242 17.0887 19.3804 10.6879 14.7696 5.37108L12.536 2.81787L10.3023 5.37108C5.62128 10.6879 3.74771 17.0888 5.04458 23.9645L7.20506 31.3088L9.37399 39.4613Z" stroke="#6A8BE2" stroke-width="3.77177" stroke-linecap="round" stroke-linejoin="round"/>
    <path fill-rule="evenodd" clip-rule="evenodd" d="M12.63 20.6531C14.0825 20.6531 15.26 19.5064 15.26 18.0919C15.26 16.6773 14.0825 15.5306 12.63 15.5306C11.1775 15.5306 10 16.6773 10 18.0919C10 19.5064 11.1775 20.6531 12.63 20.6531Z" stroke="#F67676" stroke-width="3.77177" stroke-linecap="round" stroke-linejoin="round"/>
</svg>
