<svg width="116" height="106" viewBox="0 0 116 106" fill="none" xmlns="http://www.w3.org/2000/svg">
    <rect width="116" height="106" fill="black" fill-opacity="0"/>
    <path d="M22.7656 94.388C21.9237 94.388 21.2461 94.2443 20.7328 93.9568C20.2195 93.6796 19.855 93.3613 19.6394 93.002C19.4238 92.6427 19.3057 92.3193 19.2852 92.0318C19.2749 91.9291 19.3057 91.8419 19.3776 91.77C19.4597 91.6981 19.547 91.6622 19.6394 91.6622H20.3786C20.471 91.6622 20.548 91.6827 20.6096 91.7238C20.6712 91.7751 20.7225 91.8624 20.7636 91.9856C20.8868 92.3141 21.087 92.5965 21.3642 92.8326C21.6517 93.079 22.0931 93.2022 22.6886 93.2022C23.4483 93.2022 24.0079 93.0379 24.3672 92.7094C24.7265 92.3911 24.9062 91.8213 24.9062 91V89.9528C24.6393 90.2916 24.3005 90.5637 23.8898 90.769C23.4791 90.9641 22.9915 91.0616 22.4268 91.0616C21.3385 91.0616 20.5223 90.7177 19.9782 90.0298C19.4443 89.3317 19.162 88.4487 19.1312 87.381L19.1158 86.9498L19.1312 86.534C19.162 85.4765 19.4495 84.5987 19.9936 83.9006C20.5377 83.1922 21.3488 82.838 22.4268 82.838C23.5048 82.838 24.3467 83.2333 24.9524 84.0238V83.3616C24.9524 83.2589 24.9832 83.1717 25.0448 83.0998C25.1167 83.0279 25.2039 82.992 25.3066 82.992H26.015C26.1177 82.992 26.2049 83.0279 26.2768 83.0998C26.3487 83.1717 26.3846 83.2589 26.3846 83.3616V90.8306C26.3846 93.2022 25.1783 94.388 22.7656 94.388ZM22.7348 89.8296C23.4329 89.8296 23.9617 89.5986 24.321 89.1366C24.6803 88.6746 24.8754 88.1253 24.9062 87.4888C24.9165 87.3964 24.9216 87.2167 24.9216 86.9498C24.9216 86.6931 24.9165 86.5186 24.9062 86.4262C24.8754 85.7897 24.6803 85.2404 24.321 84.7784C23.9719 84.3164 23.4432 84.0854 22.7348 84.0854C22.0059 84.0854 21.4771 84.3113 21.1486 84.763C20.8201 85.2147 20.6404 85.8102 20.6096 86.5494L20.5942 86.9498L20.6096 87.3656C20.6404 88.0945 20.8201 88.69 21.1486 89.152C21.4771 89.6037 22.0059 89.8296 22.7348 89.8296ZM29.0285 91C28.9258 91 28.8385 90.9692 28.7667 90.9076C28.7051 90.8357 28.6743 90.7485 28.6743 90.6458V83.3616C28.6743 83.2589 28.7051 83.1717 28.7667 83.0998C28.8385 83.0279 28.9258 82.992 29.0285 82.992H29.7369C29.8395 82.992 29.9268 83.0279 29.9987 83.0998C30.0705 83.1717 30.1065 83.2589 30.1065 83.3616V84.0392C30.5274 83.3411 31.2461 82.992 32.2625 82.992H32.8631C32.9657 82.992 33.0479 83.0279 33.1095 83.0998C33.1813 83.1614 33.2173 83.2435 33.2173 83.3462V83.9776C33.2173 84.0803 33.1813 84.1624 33.1095 84.224C33.0479 84.2856 32.9657 84.3164 32.8631 84.3164H31.9391C31.3847 84.3164 30.9483 84.4807 30.6301 84.8092C30.3118 85.1275 30.1527 85.5638 30.1527 86.1182V90.6458C30.1527 90.7485 30.1167 90.8357 30.0449 90.9076C29.973 90.9692 29.8857 91 29.7831 91H29.0285ZM36.6372 91.154C36.1341 91.154 35.667 91.0513 35.2358 90.846C34.8046 90.6407 34.4606 90.3635 34.204 90.0144C33.9576 89.6551 33.8344 89.2598 33.8344 88.8286C33.8344 88.151 34.1116 87.5966 34.666 87.1654C35.2306 86.7239 35.9904 86.4365 36.9452 86.303L39.2398 85.9796V85.533C39.2398 84.4858 38.6392 83.9622 37.438 83.9622C36.9862 83.9622 36.6166 84.0597 36.3292 84.2548C36.0417 84.4396 35.8261 84.6603 35.6824 84.917C35.6516 85.0094 35.6105 85.0761 35.5592 85.1172C35.5181 85.1583 35.4565 85.1788 35.3744 85.1788H34.7122C34.6198 85.1788 34.5376 85.148 34.4658 85.0864C34.4042 85.0145 34.3734 84.9324 34.3734 84.84C34.3836 84.5936 34.4966 84.3164 34.7122 84.0084C34.938 83.6901 35.282 83.4181 35.744 83.1922C36.206 82.9561 36.7758 82.838 37.4534 82.838C38.6032 82.838 39.4297 83.1101 39.9328 83.6542C40.4358 84.1881 40.6874 84.8554 40.6874 85.6562V90.6458C40.6874 90.7485 40.6514 90.8357 40.5796 90.9076C40.518 90.9692 40.4358 91 40.3332 91H39.6248C39.5221 91 39.4348 90.9692 39.363 90.9076C39.3014 90.8357 39.2706 90.7485 39.2706 90.6458V89.9836C39.0447 90.3121 38.7162 90.5893 38.285 90.8152C37.8538 91.0411 37.3045 91.154 36.6372 91.154ZM36.9606 89.999C37.6279 89.999 38.172 89.7834 38.593 89.3522C39.0242 88.9107 39.2398 88.2793 39.2398 87.458V87.0268L37.4534 87.2886C36.7244 87.3913 36.1752 87.5658 35.8056 87.8122C35.436 88.0483 35.2512 88.3512 35.2512 88.7208C35.2512 89.1315 35.4206 89.4497 35.7594 89.6756C36.0982 89.8912 36.4986 89.999 36.9606 89.999ZM43.2554 91C43.1528 91 43.0655 90.9692 42.9936 90.9076C42.932 90.8357 42.9012 90.7485 42.9012 90.6458V83.3462C42.9012 83.2435 42.932 83.1614 42.9936 83.0998C43.0655 83.0279 43.1528 82.992 43.2554 82.992H43.9792C44.0819 82.992 44.164 83.0279 44.2256 83.0998C44.2975 83.1614 44.3334 83.2435 44.3334 83.3462V84.0238C44.6312 83.6439 44.9802 83.3513 45.3806 83.146C45.7913 82.9407 46.2995 82.838 46.9052 82.838C47.8908 82.838 48.6557 83.1563 49.1998 83.7928C49.7542 84.4191 50.0314 85.2558 50.0314 86.303V90.6458C50.0314 90.7485 49.9955 90.8357 49.9236 90.9076C49.862 90.9692 49.7799 91 49.6772 91H48.9072C48.8046 91 48.7173 90.9692 48.6454 90.9076C48.5838 90.8357 48.553 90.7485 48.553 90.6458V86.38C48.553 85.6511 48.3734 85.0864 48.014 84.686C47.665 84.2856 47.1568 84.0854 46.4894 84.0854C45.8426 84.0854 45.3293 84.2907 44.9494 84.7014C44.5696 85.1018 44.3796 85.6613 44.3796 86.38V90.6458C44.3796 90.7485 44.3437 90.8357 44.2718 90.9076C44.2102 90.9692 44.1281 91 44.0254 91H43.2554ZM55.1665 91.154C54.0987 91.154 53.2928 90.8049 52.7487 90.1068C52.2045 89.4087 51.9171 88.5257 51.8863 87.458L51.8709 86.996L51.8863 86.534C51.9171 85.4765 52.2045 84.5987 52.7487 83.9006C53.2928 83.1922 54.0987 82.838 55.1665 82.838C56.2239 82.838 57.0555 83.2127 57.6613 83.9622V80.4202C57.6613 80.3175 57.6921 80.2354 57.7537 80.1738C57.8255 80.1019 57.9128 80.066 58.0155 80.066H58.7547C58.8573 80.066 58.9395 80.1019 59.0011 80.1738C59.0729 80.2354 59.1089 80.3175 59.1089 80.4202V90.6458C59.1089 90.7485 59.0729 90.8357 59.0011 90.9076C58.9395 90.9692 58.8573 91 58.7547 91H58.0617C57.959 91 57.8717 90.9692 57.7999 90.9076C57.7383 90.8357 57.7075 90.7485 57.7075 90.6458V89.999C57.112 90.769 56.265 91.154 55.1665 91.154ZM55.4899 89.9066C56.1983 89.9066 56.727 89.6756 57.0761 89.2136C57.4354 88.7413 57.6305 88.1818 57.6613 87.535C57.6715 87.4221 57.6767 87.227 57.6767 86.9498C57.6767 86.6623 57.6715 86.4621 57.6613 86.3492C57.6407 85.7435 57.4457 85.2147 57.0761 84.763C56.7065 84.3113 56.1777 84.0854 55.4899 84.0854C54.7609 84.0854 54.2271 84.3113 53.8883 84.763C53.5597 85.2147 53.3801 85.8102 53.3493 86.5494L53.3339 86.996C53.3339 88.9364 54.0525 89.9066 55.4899 89.9066ZM67.4071 91.154C66.904 91.154 66.4369 91.0513 66.0057 90.846C65.5745 90.6407 65.2305 90.3635 64.9739 90.0144C64.7275 89.6551 64.6043 89.2598 64.6043 88.8286C64.6043 88.151 64.8815 87.5966 65.4359 87.1654C66.0005 86.7239 66.7603 86.4365 67.7151 86.303L70.0097 85.9796V85.533C70.0097 84.4858 69.4091 83.9622 68.2079 83.9622C67.7561 83.9622 67.3865 84.0597 67.0991 84.2548C66.8116 84.4396 66.596 84.6603 66.4523 84.917C66.4215 85.0094 66.3804 85.0761 66.3291 85.1172C66.288 85.1583 66.2264 85.1788 66.1443 85.1788H65.4821C65.3897 85.1788 65.3075 85.148 65.2357 85.0864C65.1741 85.0145 65.1433 84.9324 65.1433 84.84C65.1535 84.5936 65.2665 84.3164 65.4821 84.0084C65.7079 83.6901 66.0519 83.4181 66.5139 83.1922C66.9759 82.9561 67.5457 82.838 68.2233 82.838C69.3731 82.838 70.1996 83.1101 70.7027 83.6542C71.2057 84.1881 71.4573 84.8554 71.4573 85.6562V90.6458C71.4573 90.7485 71.4213 90.8357 71.3495 90.9076C71.2879 90.9692 71.2057 91 71.1031 91H70.3947C70.292 91 70.2047 90.9692 70.1329 90.9076C70.0713 90.8357 70.0405 90.7485 70.0405 90.6458V89.9836C69.8146 90.3121 69.4861 90.5893 69.0549 90.8152C68.6237 91.0411 68.0744 91.154 67.4071 91.154ZM67.7305 89.999C68.3978 89.999 68.9419 89.7834 69.3629 89.3522C69.7941 88.9107 70.0097 88.2793 70.0097 87.458V87.0268L68.2233 87.2886C67.4943 87.3913 66.9451 87.5658 66.5755 87.8122C66.2059 88.0483 66.0211 88.3512 66.0211 88.7208C66.0211 89.1315 66.1905 89.4497 66.5293 89.6756C66.8681 89.8912 67.2685 89.999 67.7305 89.999ZM76.6587 91.154C75.6834 91.154 74.9288 90.8409 74.3949 90.2146C73.8611 89.5781 73.5941 88.7362 73.5941 87.689V83.3462C73.5941 83.2435 73.6249 83.1614 73.6865 83.0998C73.7584 83.0279 73.8457 82.992 73.9483 82.992H74.7183C74.821 82.992 74.9031 83.0279 74.9647 83.0998C75.0366 83.1614 75.0725 83.2435 75.0725 83.3462V87.612C75.0725 89.1417 75.7399 89.9066 77.0745 89.9066C77.7213 89.9066 78.2347 89.7064 78.6145 89.306C78.9944 88.8953 79.1843 88.3307 79.1843 87.612V83.3462C79.1843 83.2435 79.2151 83.1614 79.2767 83.0998C79.3486 83.0279 79.4359 82.992 79.5385 82.992H80.3085C80.4112 82.992 80.4933 83.0279 80.5549 83.0998C80.6165 83.1614 80.6473 83.2435 80.6473 83.3462V90.6458C80.6473 90.7485 80.6165 90.8357 80.5549 90.9076C80.4933 90.9692 80.4112 91 80.3085 91H79.5847C79.4821 91 79.3948 90.9692 79.3229 90.9076C79.2613 90.8357 79.2305 90.7485 79.2305 90.6458V89.9682C78.9431 90.3583 78.594 90.6561 78.1833 90.8614C77.7727 91.0565 77.2645 91.154 76.6587 91.154ZM86.0614 91C84.4393 91 83.6282 90.0965 83.6282 88.2896V84.224H82.427C82.3243 84.224 82.2371 84.1932 82.1652 84.1316C82.1036 84.0597 82.0728 83.9725 82.0728 83.8698V83.3462C82.0728 83.2435 82.1036 83.1614 82.1652 83.0998C82.2371 83.0279 82.3243 82.992 82.427 82.992H83.6282V80.4202C83.6282 80.3175 83.659 80.2354 83.7206 80.1738C83.7925 80.1019 83.8797 80.066 83.9824 80.066H84.7062C84.8089 80.066 84.891 80.1019 84.9526 80.1738C85.0245 80.2354 85.0604 80.3175 85.0604 80.4202V82.992H86.97C87.0727 82.992 87.1548 83.0279 87.2164 83.0998C87.2883 83.1614 87.3242 83.2435 87.3242 83.3462V83.8698C87.3242 83.9725 87.2883 84.0597 87.2164 84.1316C87.1548 84.1932 87.0727 84.224 86.97 84.224H85.0604V88.1818C85.0604 88.6951 85.1477 89.0853 85.3222 89.3522C85.4967 89.6089 85.7842 89.7372 86.1846 89.7372H87.124C87.2267 89.7372 87.3088 89.7731 87.3704 89.845C87.4423 89.9066 87.4782 89.9887 87.4782 90.0914V90.6458C87.4782 90.7485 87.4423 90.8357 87.3704 90.9076C87.3088 90.9692 87.2267 91 87.124 91H86.0614ZM92.231 91.154C91.1017 91.154 90.2239 90.8357 89.5976 90.1992C88.9816 89.5627 88.6531 88.7157 88.612 87.6582L88.5966 86.996L88.612 86.3338C88.6531 85.2866 88.9868 84.4447 89.613 83.8082C90.2393 83.1614 91.112 82.838 92.231 82.838C93.3501 82.838 94.2228 83.1614 94.849 83.8082C95.4753 84.4447 95.809 85.2866 95.85 86.3338C95.8603 86.4467 95.8654 86.6675 95.8654 86.996C95.8654 87.3245 95.8603 87.5453 95.85 87.6582C95.809 88.7157 95.4753 89.5627 94.849 90.1992C94.233 90.8357 93.3604 91.154 92.231 91.154ZM92.231 89.9682C92.8778 89.9682 93.386 89.7629 93.7556 89.3522C94.1355 88.9415 94.3408 88.3512 94.3716 87.5812C94.3819 87.4785 94.387 87.2835 94.387 86.996C94.387 86.7085 94.3819 86.5135 94.3716 86.4108C94.3408 85.6408 94.1355 85.0505 93.7556 84.6398C93.386 84.2291 92.8778 84.0238 92.231 84.0238C91.5842 84.0238 91.0709 84.2291 90.691 84.6398C90.3112 85.0505 90.111 85.6408 90.0904 86.4108L90.075 86.996L90.0904 87.5812C90.111 88.3512 90.3112 88.9415 90.691 89.3522C91.0709 89.7629 91.5842 89.9682 92.231 89.9682Z" fill="black"/>
    <path d="M97.4058 28H96.0654V17.8733C95.9619 17.9768 95.8093 18.0967 95.6077 18.2329C95.4115 18.3637 95.1881 18.4945 94.9375 18.6252C94.6923 18.756 94.4307 18.8786 94.1528 18.993C93.8804 19.1074 93.6134 19.1974 93.3519 19.2627V17.906C93.6461 17.8242 93.9567 17.7153 94.2836 17.579C94.616 17.4374 94.9402 17.2821 95.2562 17.1132C95.5777 16.9388 95.8801 16.759 96.1635 16.5737C96.4468 16.383 96.692 16.1978 96.8991 16.0179H97.4058V28Z" fill="black"/>
    <path d="M62.9576 74H56.7641V68.0304C54.0529 70.468 51.2671 72.2589 48.4066 73.403C45.5462 74.5223 42.3872 75.082 38.9298 75.082C30.7465 75.082 23.9809 72.3708 18.6331 66.9484C13.2853 61.526 10.6114 54.7107 10.6114 46.5024C10.6114 38.2693 13.2729 31.454 18.5958 26.0565C23.9436 20.6341 30.7216 17.9229 38.9298 17.9229C42.1136 17.9229 45.0984 18.4825 47.8843 19.6018C50.6701 20.6963 53.2196 22.3503 55.5328 24.5641V18.9676H61.5771V37.9957H56.6148C55.2717 33.5434 53.0952 30.1606 50.0856 27.8474C47.1008 25.5093 43.3822 24.3402 38.9298 24.3402C32.9602 24.3402 27.9731 26.4296 23.9685 30.6083C19.9887 34.7622 17.9989 40.0602 17.9989 46.5024C17.9989 52.8949 19.9887 58.1929 23.9685 62.3966C27.9731 66.5753 32.9602 68.6647 38.9298 68.6647C43.4568 68.6647 47.2251 67.5453 50.2348 65.3067C53.2445 63.0433 55.4209 59.7227 56.7641 55.3449H42.9966V49.4126H69.0391V55.3449H62.9576V74ZM85.5675 44.4877C86.8609 42.2491 88.4279 40.6074 90.2686 39.5628C92.1341 38.5181 94.4349 37.9957 97.1709 37.9957C97.3202 37.9957 97.5689 38.0082 97.9172 38.033C98.2654 38.0579 98.5265 38.0703 98.7007 38.0703V43.9653H96.8725C93.3156 43.9653 90.5422 44.9105 88.5523 46.8009C86.5624 48.6664 85.5675 51.2906 85.5675 54.6734V68.7393H90.9775V74H73.6656V68.7393H79.0755V44.2638H73.6656V39.0031H85.5675V44.4877Z" fill="black"/>
    <rect x="1" y="1" width="114" height="104" stroke="black" stroke-width="2"/>
</svg>
