<svg width="127" height="127" viewBox="0 0 127 127" fill="none" xmlns="http://www.w3.org/2000/svg">
    <path d="M120.689 108.574H120.855V96.2905C120.855 96.0265 120.83 89.743 118.64 83.1999L111.962 67.6283H106.516H101.069L94.3298 83.3594C92.2013 89.7431 92.1768 96.0261 92.1768 96.29V100.385H86.032C82.6441 100.385 79.8867 97.6288 79.8867 94.2427V85.7159C89.6656 80.0408 96.2737 69.4851 96.2737 57.3916V57.101C99.7967 56.1857 102.419 53.0085 102.419 49.2027C102.419 45.5238 101.032 43.2 100.256 42.1845C100.325 41.8058 100.371 41.4188 100.371 41.0134V36.9187C100.371 16.5998 83.83 0.067627 63.4998 0.067627C43.1696 0.067627 26.6291 16.5993 26.6291 36.9187V41.0134C26.6291 41.4188 26.6742 41.8058 26.7439 42.1845C25.9675 43.2 24.5806 45.5238 24.5806 49.2027C24.5806 53.0085 27.2025 56.1861 30.7259 57.101V57.3916C30.7259 69.4851 37.334 80.0408 47.1128 85.7159V94.2427C47.1128 97.6288 44.3555 100.385 40.9676 100.385H30.7255V97.4999C34.7526 95.0596 36.8707 91.1287 36.8707 86.0534C36.8707 81.0705 33.5073 75.2681 27.0794 73.8188L24.5802 73.2556V84.0061H20.4834V73.2518L17.9803 73.8188C11.5545 75.2806 8.19326 81.0787 8.19326 86.0534C8.19326 91.1287 10.3114 95.0574 14.3385 97.4999V102.649C5.89104 106.539 0 115.062 0 124.953V127H4.09684V124.953C4.09684 114.356 12.1963 105.614 22.5322 104.584V127H26.6291V104.48H32.7739V127H36.8707V104.48H40.9676C41.8034 104.48 42.6022 104.351 43.3808 104.163C45.1608 113.65 53.4977 120.858 63.4998 120.858C73.5019 120.858 81.8388 113.649 83.6188 104.163C84.3974 104.351 85.1962 104.48 86.032 104.48H90.1288V127H94.2257V104.48H100.371V127H104.468V104.584C114.804 105.616 122.903 114.356 122.903 124.952V127H127V124.952C127 118.657 124.599 112.927 120.689 108.574ZM27.7655 94.456L26.6286 95.0209V100.385H24.5802C22.4561 100.385 20.4033 100.684 18.4349 101.193V95.0209L17.2985 94.456C13.929 92.7835 12.2901 90.0358 12.2901 86.0538C12.2901 83.4231 13.689 80.4505 16.3869 78.8168V88.1011H28.677V78.8125C31.3746 80.4419 32.7739 83.4188 32.7739 86.0538C32.7739 90.0358 31.135 92.7831 27.7655 94.456ZM96.2741 47.4464C96.8436 47.0737 97.368 46.6807 97.833 46.2611C98.1014 47.0045 98.3225 47.9787 98.3225 49.2031C98.3221 50.7118 97.4927 52.0179 96.2741 52.7286V47.4464ZM61.4514 4.26719V18.4936H65.5482V4.26719C82.3059 5.31149 95.6654 18.9665 96.2186 35.8426C88.9283 31.959 73.627 30.7776 63.4998 30.7776C53.3725 30.7776 38.0713 31.959 30.781 35.8405C31.3341 18.9661 44.6936 5.30849 61.4514 4.26719ZM30.7259 52.7264C29.5068 52.0179 28.6775 50.7118 28.6775 49.2031C28.6775 47.977 28.8986 47.0023 29.167 46.259C29.632 46.6807 30.1564 47.0737 30.7259 47.4443V52.7264ZM30.7276 41.0198C31.129 38.9317 43.0444 34.8718 63.4998 34.8718C83.9672 34.8718 95.8865 38.9355 96.2737 41.0138C96.2741 45.0384 84.0145 49.2027 63.4998 49.2027C42.9953 49.2027 30.7379 45.0427 30.7276 41.0198ZM34.8223 57.3916V49.4787C43.8535 52.9182 57.8501 53.2969 63.4998 53.2969C69.1495 53.2969 83.1456 52.9182 92.1773 49.4787V57.3916C92.1773 73.1967 79.3133 86.0538 63.4998 86.0538C47.6862 86.0538 34.8223 73.1967 34.8223 57.3916ZM63.4998 116.763C55.1074 116.763 48.1758 110.421 47.2316 102.281C49.6344 100.407 51.2097 97.5188 51.2097 94.2431V87.737C55.0093 89.2804 59.1535 90.1489 63.4998 90.1489C67.8461 90.1489 71.9903 89.2809 75.7899 87.737V94.2431C75.7899 97.5188 77.3651 100.407 79.768 102.281C78.8238 110.421 71.8922 116.763 63.4998 116.763ZM101.969 100.385H96.2741V96.2905C96.2741 96.2333 96.2965 90.4146 98.1565 84.8135L103.769 71.7229H104.468V90.5251C102.089 91.3725 100.371 93.6249 100.371 96.2905C100.371 97.8692 100.987 99.2957 101.969 100.385ZM106.516 98.3378C105.387 98.3378 104.467 97.4208 104.467 96.2905C104.467 95.1602 105.387 94.2431 106.516 94.2431C107.645 94.2431 108.564 95.1602 108.564 96.2905C108.564 97.4208 107.645 98.3378 106.516 98.3378ZM116.758 105.038C114.64 103.511 112.284 102.293 109.738 101.497C111.485 100.414 112.661 98.493 112.661 96.29C112.661 93.6245 110.943 91.3725 108.564 90.5247V71.7225H109.263L114.814 84.6535C116.727 90.3858 116.758 96.2329 116.758 96.2922V105.038Z" fill="#F67676" fill-opacity="0.38"/>
</svg>