<svg width="241" height="187" viewBox="0 0 241 187" fill="none" xmlns="http://www.w3.org/2000/svg">
    <g opacity="0.2">
        <rect width="239.413" height="239.685" fill="black" fill-opacity="0" transform="translate(0.901855 0.0108643)"/>
        <rect width="239.413" height="239.685" fill="black" fill-opacity="0" transform="translate(0.901855 0.0108643)"/>
        <rect width="239.386" height="239.685" fill="black" fill-opacity="0" transform="translate(0.901855 0.0108643)"/>
        <path d="M193.288 239.696C183.329 239.696 171.3 237.197 158.08 232.206C129.071 221.25 97.5262 199.611 69.2341 171.281C40.9419 142.951 19.3323 111.355 8.3906 82.2995C-1.56883 55.8961 -1.59298 34.2252 8.31009 24.3088C9.74321 22.8738 11.2005 21.342 12.698 19.7699C21.7396 10.2566 32.1982 -0.554658 45.4909 0.0338755C54.8303 0.420856 63.8719 6.22557 73.147 17.7544C100.489 51.8167 88.1626 63.9582 73.8958 78.0347L71.3677 80.5339C69.0328 82.8719 64.6126 93.6913 105.666 134.792C119.08 148.215 130.496 158.035 139.618 163.977C145.375 167.717 155.648 173.361 159.859 169.144L162.395 166.581C176.437 152.311 188.562 140.008 222.571 167.379C234.092 176.65 239.881 185.704 240.267 195.064C240.823 208.624 230.034 218.879 220.518 227.925C218.956 229.417 217.426 230.86 216.009 232.279C211.065 237.221 203.207 239.696 193.288 239.696ZM44.5328 8.06372C34.9195 8.06372 26.2242 17.2223 18.5352 25.3166C16.9813 26.9452 15.4757 28.5334 14.0023 30.0087C6.62737 37.3856 7.38419 56.7991 15.9185 79.4616C26.4657 107.461 47.4232 138.049 74.9263 165.589C102.429 193.129 132.968 214.107 160.922 224.668C183.554 233.222 202.942 233.964 210.317 226.571C211.79 225.103 213.36 223.604 214.97 222.072C223.247 214.195 232.627 205.279 232.224 195.378C231.942 188.582 226.999 181.27 217.522 173.651C189.182 150.852 181.268 158.914 168.128 172.232L165.551 174.836C159.296 181.133 149.095 179.754 135.23 170.725C125.649 164.485 113.782 154.302 99.9738 140.484C65.9089 106.373 55.0075 85.5082 65.6754 74.8179L68.2438 72.2702C81.5928 59.1129 89.6441 51.1718 66.867 22.7932C59.2505 13.3202 51.948 8.37008 45.1608 8.07985C44.9514 8.07179 44.734 8.06372 44.5328 8.06372Z" fill="#6A8BE2"/>
        <rect width="116.316" height="113.615" fill="black" fill-opacity="0" transform="translate(123.999 0.0620117)"/>
        <path d="M194.699 99.0694C194.191 99.0694 193.684 98.9727 193.185 98.7711C191.124 97.9327 190.126 95.5866 190.971 93.5308C196.092 80.8894 193.161 66.4824 183.532 56.8321C173.637 46.9238 158.428 44.1746 145.666 49.9148C143.662 50.8258 141.254 49.939 140.345 47.9074C139.427 45.8757 140.32 43.4893 142.349 42.5783C158.138 35.4192 176.97 38.8617 189.224 51.1403C201.148 63.0802 204.763 80.9055 198.426 96.5621C197.798 98.11 196.285 99.0694 194.699 99.0694Z" fill="#6A8BE2"/>
        <path d="M230.639 113.678C230.132 113.678 229.625 113.581 229.126 113.379C227.056 112.541 226.066 110.195 226.911 108.139C237.901 80.9938 231.646 50.0756 210.962 29.3641C189.723 8.0963 157.059 2.13034 129.684 14.5218C127.655 15.4086 125.272 14.5379 124.354 12.5063C123.445 10.4666 124.338 8.08017 126.367 7.16109C156.777 -6.59284 193.056 0.0261386 216.654 23.6561C239.632 46.6654 246.589 81.0099 234.367 111.162C233.739 112.726 232.225 113.678 230.639 113.678Z" fill="#6A8BE2"/>
    </g>
</svg>