<svg width="28" height="25" viewBox="0 0 28 25" fill="none" xmlns="http://www.w3.org/2000/svg">
    <rect width="27.1246" height="25" fill="black" fill-opacity="0" transform="translate(0.4375)"/>
    <path fill-rule="evenodd" clip-rule="evenodd" d="M2.69788 0H25.3017C26.5501 0 27.5621 0.93274 27.5621 2.08333V22.9167C27.5621 24.0673 26.5501 25 25.3017 25H2.69788C1.44951 25 0.4375 24.0673 0.4375 22.9167V2.08333C0.4375 0.93274 1.44951 0 2.69788 0Z" fill="#6A8BE2"/>
    <path d="M12.1163 18.75L12.1349 12.8474H10.6094V10.5728H12.1349V9.20826C12.1349 7.35396 12.8714 6.25 15.3185 6.25H17.5789V8.50694H16.2075C15.2547 8.50694 15.1913 8.84212 15.1913 9.43544L15.1875 10.5728H17.4948L17.2246 12.8474H15.1875V18.75H12.1163Z" fill="white"/>
</svg>
