<svg width="28" height="25" viewBox="0 0 28 25" fill="none" xmlns="http://www.w3.org/2000/svg">
    <rect width="27.1246" height="25" fill="black" fill-opacity="0" transform="translate(0.15625)"/>
    <path d="M2.41663 0H25.0204C26.2688 0 27.2808 0.93274 27.2808 2.08333V22.9167C27.2808 24.0673 26.2688 25 25.0204 25H2.41663C1.16826 25 0.15625 24.0673 0.15625 22.9167V2.08333C0.15625 0.93274 1.16826 0 2.41663 0Z" fill="#FF4E4E"/>
    <path d="M2.41663 0H25.0204C26.2688 0 27.2808 0.93274 27.2808 2.08333V22.9167C27.2808 24.0673 26.2688 25 25.0204 25H2.41663C1.16826 25 0.15625 24.0673 0.15625 22.9167V2.08333C0.15625 0.93274 1.16826 0 2.41663 0Z" stroke="#6A8BE2"/>
    <path fill-rule="evenodd" clip-rule="evenodd" d="M16.1675 12.5869C16.1675 15.7031 13.4268 18.2292 10.0459 18.2292C6.66455 18.2292 3.92383 15.7031 3.92383 12.5869C3.92383 9.4707 6.66455 6.94458 10.0459 6.94458C11.6196 6.94458 13.0542 7.4917 14.1387 8.39111L12.4033 9.99072C11.7656 9.49805 10.9434 9.20142 10.0459 9.20142C8.01709 9.20142 6.37256 10.717 6.37256 12.5869C6.37256 14.4565 8.01709 15.9722 10.0459 15.9722C11.645 15.9722 13.0054 15.0303 13.5098 13.7153H10.0459V11.4585L10.811 11.4583L13.5098 11.4585L16.0449 11.4583C16.1255 11.823 16.1675 12.2004 16.1675 12.5869ZM19.8408 9.62451H21.3711V11.5999H23.5142V13.0105H21.3711V14.9849H19.8408V13.0105H17.6982V11.5999H19.8408V9.62451Z" fill="white"/>
</svg>
