<svg width="27" height="26" viewBox="0 0 27 26" fill="none" xmlns="http://www.w3.org/2000/svg">
    <rect width="27" height="26" fill="black" fill-opacity="0"/>
    <rect width="5.4" height="5.2" fill="black" fill-opacity="0" transform="translate(10.7998 11.7001)"/>
    <rect width="5.4" height="5.2" fill="black" fill-opacity="0" transform="translate(10.7998 11.7001)"/>
    <path d="M13.4998 11.7001C12.0109 11.7001 10.7998 12.8663 10.7998 14.3001C10.7998 15.7338 12.0109 16.9001 13.4998 16.9001C14.9887 16.9001 16.1998 15.7338 16.1998 14.3001C16.1998 12.8663 14.9887 11.7001 13.4998 11.7001ZM13.4998 16.0334C12.5073 16.0334 11.6998 15.256 11.6998 14.3001C11.6998 13.3441 12.5073 12.5667 13.4998 12.5667C14.4923 12.5667 15.2998 13.3441 15.2998 14.3001C15.2998 15.256 14.4923 16.0334 13.4998 16.0334Z" fill="#6A8BE2"/>
    <rect width="27" height="26" fill="black" fill-opacity="0"/>
    <rect width="27" height="26" fill="black" fill-opacity="0"/>
    <path d="M13.5 0C6.0561 0 0 5.8318 0 13C0 20.1682 6.0561 26 13.5 26C20.9439 26 27 20.1682 27 13C27 5.8318 20.9439 0 13.5 0ZM13.5 25.1333C6.55223 25.1333 0.9 19.6905 0.9 13C0.9 6.30955 6.55223 0.866667 13.5 0.866667C20.4478 0.866667 26.1 6.30955 26.1 13C26.1 19.6905 20.4478 25.1333 13.5 25.1333Z" fill="#6A8BE2"/>
    <rect width="21.6" height="20.8" fill="black" fill-opacity="0" transform="translate(2.69971 2.60004)"/>
    <rect width="21.6" height="20.8" fill="black" fill-opacity="0" transform="translate(2.69971 2.60004)"/>
    <path d="M13.4997 2.60004C7.54469 2.60004 2.69971 7.26557 2.69971 13C2.69971 18.7345 7.54469 23.4 13.4997 23.4C19.4547 23.4 24.2997 18.7345 24.2997 13C24.2997 7.26557 19.4547 2.60004 13.4997 2.60004ZM13.4997 3.4667C17.7064 3.4667 21.3061 6.00739 22.7375 9.57806L19.366 10.6603C18.2096 11.0314 16.9594 10.9734 15.8447 10.4961C14.3545 9.85794 12.6448 9.85794 11.155 10.4961L10.9845 10.5689C9.97115 11.0031 8.82224 11.0907 7.7495 10.8152L4.14376 9.88925C5.48633 6.15586 9.17189 3.4667 13.4997 3.4667ZM3.59971 13C3.59971 12.9117 3.60415 12.8245 3.60668 12.7368L3.91921 12.8371C8.35598 14.2612 11.4937 17.9939 12.0518 22.4304C7.27694 21.7535 3.59971 17.7831 3.59971 13ZM13.4997 22.5334C13.321 22.5334 13.1435 22.5282 12.9671 22.5192C12.4353 17.6657 9.03672 13.5663 4.20394 12.0153L3.67486 11.8455C3.72306 11.4631 3.79399 11.0874 3.88793 10.7202L7.51741 11.6523C8.00386 11.7771 8.5033 11.8393 9.0023 11.8393C9.8065 11.8393 10.6087 11.6785 11.3498 11.3611L11.5203 11.2883C12.778 10.7492 14.2208 10.7496 15.4802 11.2887C16.7997 11.8528 18.2806 11.9222 19.6506 11.4821L23.0222 10.3999C23.1604 10.8683 23.2621 11.351 23.3244 11.8455L22.7954 12.0153C17.9625 13.5663 14.564 17.6657 14.0322 22.5192C13.8559 22.5282 13.6784 22.5334 13.4997 22.5334ZM14.9477 22.4304C15.5058 17.9939 18.6434 14.2612 23.0803 12.8371L23.3928 12.7368C23.3953 12.8245 23.3998 12.9117 23.3998 13C23.3997 17.7831 19.7225 21.7535 14.9477 22.4304Z" fill="#6A8BE2"/>
</svg>
